<?xml version="1.0" encoding="UTF-8"?>
<svg version="1.1" xmlns="http://www.w3.org/2000/svg" width="1000" height="1000">
<path d="M0 0 C1.03025299 -0.00204437 2.06050598 -0.00408875 3.12197876 -0.00619507 C6.53641408 -0.00920721 9.9503678 0.00931467 13.36474609 0.02832031 C15.75914389 0.03138247 18.15354348 0.03325511 20.54794312 0.03399658 C25.58346319 0.03860534 30.61882388 0.05303358 35.65429688 0.07519531 C42.02890175 0.10314264 48.40337964 0.11437363 54.77803993 0.11887741 C60.93195756 0.12411058 67.08584517 0.13860723 73.23974609 0.15332031 C74.37824635 0.15520103 75.5167466 0.15708176 76.68974686 0.15901947 C90.18259217 0.18775159 103.63973379 0.45275306 117.12174988 0.99921417 C126.07555894 1.3549542 135.01318031 1.49229278 143.97328568 1.49454498 C148.24186421 1.49905251 152.51031389 1.53006813 156.77880859 1.55566406 C162.12423775 1.58608176 167.46941702 1.60873461 172.81494141 1.60693359 C177.22300384 1.6061447 181.63036988 1.62952616 186.03824997 1.66881561 C187.69426718 1.67919353 189.35036541 1.68086096 191.00639725 1.67316437 C207.77777431 1.60271793 207.77777431 1.60271793 214.76318359 7.35644531 C216.96439252 9.67350734 218.4651822 11.83425938 220.04052734 14.59472656 C222.51739747 18.56558184 225.43875373 22.14930163 228.35498047 25.80371094 C231.76318359 30.14553082 231.76318359 30.14553082 231.76318359 32.35644531 C232.42318359 32.35644531 233.08318359 32.35644531 233.76318359 32.35644531 C235.44812096 34.53344404 237.02512984 36.7115625 238.57568359 38.98144531 C241.12398782 42.67475159 243.65457719 46.29125671 246.58740234 49.69238281 C248.76318359 52.35644531 248.76318359 52.35644531 248.76318359 54.35644531 C249.42318359 54.35644531 250.08318359 54.35644531 250.76318359 54.35644531 C252.44812096 56.53344404 254.02512984 58.7115625 255.57568359 60.98144531 C258.12398782 64.67475159 260.65457719 68.29125671 263.58740234 71.69238281 C265.76318359 74.35644531 265.76318359 74.35644531 265.76318359 76.35644531 C266.42318359 76.35644531 267.08318359 76.35644531 267.76318359 76.35644531 C269.32429387 78.36664211 270.77035704 80.38061873 272.20068359 82.48144531 C275.67664599 87.46627413 279.23401364 92.34700097 283.01318359 97.10644531 C283.67930664 97.94574585 283.67930664 97.94574585 284.35888672 98.80200195 C285.30544214 99.99399136 286.25222788 101.18579792 287.19921875 102.37744141 C290.82847059 106.96981035 294.40453226 111.60401458 297.99267578 116.22851562 C298.5550293 116.95264648 299.11738281 117.67677734 299.69677734 118.42285156 C300.49051758 119.45212769 300.49051758 119.45212769 301.30029297 120.50219727 C302.52989693 122.06074902 303.82518436 123.56716118 305.13427734 125.05957031 C307.61343937 128.55536712 307.43503644 131.29230504 307.27880859 135.46582031 C306.55268459 139.53651548 304.79222798 142.32689397 302.49755859 145.71972656 C299.45526671 150.34483246 297.17384508 155.38125033 294.76318359 160.35644531 C294.10318359 160.35644531 293.44318359 160.35644531 292.76318359 160.35644531 C292.65143799 160.91348145 292.53969238 161.47051758 292.42456055 162.04443359 C291.65810915 164.72375981 290.51919126 166.90366871 289.18115234 169.34863281 C288.66101563 170.30125 288.14087891 171.25386719 287.60498047 172.23535156 C287.0590625 173.2240625 286.51314453 174.21277344 285.95068359 175.23144531 C285.41636719 176.21242188 284.88205078 177.19339844 284.33154297 178.20410156 C279.95332213 186.18506501 279.95332213 186.18506501 277.48583984 189.80957031 C276.04417434 191.94101228 274.96333197 193.85607437 274.01318359 196.23144531 C273.60068359 197.26269531 273.18818359 198.29394531 272.76318359 199.35644531 C272.10318359 199.35644531 271.44318359 199.35644531 270.76318359 199.35644531 C270.66005859 199.8965625 270.55693359 200.43667969 270.45068359 200.99316406 C267.89330293 209.78416009 261.77306903 218.08858078 257.03515625 225.90405273 C253.17837775 232.28067006 249.63833973 238.80687967 246.15771484 245.39550781 C242.53805852 252.20410621 238.73515186 258.85402913 234.69555664 265.41992188 C233.08695656 268.05159867 231.74258904 270.41822896 230.76318359 273.35644531 C230.10318359 273.35644531 229.44318359 273.35644531 228.76318359 273.35644531 C228.66005859 273.89269531 228.55693359 274.42894531 228.45068359 274.98144531 C227.76318359 277.35644531 227.76318359 277.35644531 225.95849609 280.02832031 C224.48084945 283.09364386 224.48084945 283.09364386 225.32983398 285.18408203 C226.43485061 287.20401607 227.6453774 289.08487886 228.95068359 290.98144531 C229.79915582 292.28560231 230.64683623 293.59027486 231.49365234 294.89550781 C231.89374512 295.50040039 232.29383789 296.10529297 232.70605469 296.72851562 C234.70646591 299.80905651 235.76318359 301.64654179 235.76318359 305.35644531 C236.42318359 305.35644531 237.08318359 305.35644531 237.76318359 305.35644531 C238.32005859 306.49984375 238.87693359 307.64324219 239.45068359 308.82128906 C241.69469175 313.3083177 244.19160392 317.61349753 246.76318359 321.91894531 C248.03334714 324.05705395 249.30235373 326.19562674 250.56176758 328.34008789 C251.33728453 329.64165149 252.13249086 330.93177518 252.95092773 332.20678711 C255.49226993 336.28028444 256.28558295 339.2612816 256.20068359 344.04394531 C256.19875 345.68943359 256.19875 345.68943359 256.19677734 347.36816406 C255.72673555 350.60764127 255.05584178 352.05257609 252.76318359 354.35644531 C252.10318359 354.35644531 251.44318359 354.35644531 250.76318359 354.35644531 C250.68970703 355.0203125 250.61623047 355.68417969 250.54052734 356.36816406 C249.48554498 360.42374954 247.49950348 363.61395034 245.32568359 367.16894531 C244.91769531 367.86181641 244.50970703 368.5546875 244.08935547 369.26855469 C243.04185312 371.00299984 241.9088633 372.68522445 240.76318359 374.35644531 C240.10318359 374.35644531 239.44318359 374.35644531 238.76318359 374.35644531 C238.63943359 374.93394531 238.51568359 375.51144531 238.38818359 376.10644531 C237.75669535 378.37980298 236.87460169 380.28179821 235.76318359 382.35644531 C235.10318359 382.35644531 234.44318359 382.35644531 233.76318359 382.35644531 C233.49505859 383.07703125 233.22693359 383.79761719 232.95068359 384.54003906 C231.7630475 387.3567681 230.3691912 389.821228 228.76318359 392.41894531 C226.95780669 395.34816934 225.2535573 398.25388851 223.76318359 401.35644531 C223.10318359 401.35644531 222.44318359 401.35644531 221.76318359 401.35644531 C221.49997314 402.06857178 221.2367627 402.78069824 220.96557617 403.5144043 C219.70889139 406.48477335 218.21746637 409.0845628 216.52490234 411.82910156 C215.87537598 412.88468262 215.22584961 413.94026367 214.55664062 415.02783203 C213.8616748 416.14689941 213.16670898 417.2659668 212.45068359 418.41894531 C211.732988 419.58051394 211.01537813 420.74213555 210.29785156 421.90380859 C205.23292123 430.08339466 200.05146645 438.18328358 194.75024414 446.2121582 C194.25177979 446.96875732 193.75331543 447.72535645 193.23974609 448.50488281 C192.80742676 449.15634277 192.37510742 449.80780273 191.9296875 450.47900391 C190.74375792 452.38771015 189.73583153 454.33192162 188.76318359 456.35644531 C188.10318359 456.35644531 187.44318359 456.35644531 186.76318359 456.35644531 C186.66908203 456.90300781 186.57498047 457.44957031 186.47802734 458.01269531 C185.56343587 461.01135587 184.05223623 463.24328456 182.32568359 465.85644531 C180.28265407 468.96150898 178.34358727 471.98915307 176.76318359 475.35644531 C176.10318359 475.35644531 175.44318359 475.35644531 174.76318359 475.35644531 C174.51568359 476.07832031 174.26818359 476.80019531 174.01318359 477.54394531 C171.47943763 483.24487374 167.35580495 487.54870317 161.76318359 490.35644531 C158.26391489 491.04257428 154.85594214 491.00065719 151.29931641 490.93994141 C150.26877136 490.94227783 149.23822632 490.94461426 148.17645264 490.94702148 C144.77255323 490.9486342 141.37001612 490.9145727 137.96630859 490.87988281 C135.57477302 490.87308152 133.18323069 490.86836649 130.79168701 490.8656311 C124.48237184 490.85221587 118.17361893 490.80798002 111.86450195 490.75805664 C106.79124861 490.72300215 101.71805553 490.70962842 96.64470291 490.69763756 C90.50187111 490.68262586 84.35909486 490.65759458 78.21630859 490.62988281 C77.08083839 490.62497204 75.94536819 490.62006126 74.77548981 490.61500168 C61.30787696 490.54685561 47.87006404 490.25543496 34.4130249 489.71491623 C25.437555 489.36046994 16.47376855 489.19708428 7.49195099 489.15721512 C4.97582976 489.14494465 2.45984678 489.12542312 -0.05621338 489.10409546 C-7.18391428 489.04387517 -14.31156794 488.98805473 -21.43945312 488.95507812 C-25.86034354 488.93411553 -30.28092428 488.89886848 -34.70163727 488.85432053 C-36.36488474 488.84025124 -38.02818626 488.83145881 -39.69149017 488.82826614 C-42.00087807 488.82334377 -44.30943452 488.8001751 -46.61865234 488.77294922 C-47.92509705 488.76486237 -49.23154175 488.75677551 -50.57757568 488.7484436 C-57.425235 488.01488412 -62.3096316 485.04327964 -67.23681641 480.35644531 C-67.23681641 479.69644531 -67.23681641 479.03644531 -67.23681641 478.35644531 C-67.89681641 478.35644531 -68.55681641 478.35644531 -69.23681641 478.35644531 C-69.45208984 477.3496875 -69.66736328 476.34292969 -69.88916016 475.30566406 C-71.19290934 470.76478436 -73.77305494 467.71597477 -76.79931641 464.16894531 C-77.8932482 462.84595212 -78.98568204 461.52171899 -80.07666016 460.19628906 C-80.88466064 459.22151611 -80.88466064 459.22151611 -81.70898438 458.22705078 C-84.59334323 454.69557786 -87.27757325 451.02044157 -89.99072266 447.35644531 C-91.64377134 445.14854725 -93.31406699 442.96502206 -95.01416016 440.79394531 C-95.47806152 440.19984863 -95.94196289 439.60575195 -96.41992188 438.99365234 C-97.32256864 437.84050113 -98.22900501 436.69030378 -99.13964844 435.54345703 C-102.23681641 431.57794727 -102.23681641 431.57794727 -102.23681641 429.35644531 C-102.89681641 429.35644531 -103.55681641 429.35644531 -104.23681641 429.35644531 C-107.72626859 425.53511588 -110.68441404 421.3241329 -112.23681641 416.35644531 C-112.89681641 416.35644531 -113.55681641 416.35644531 -114.23681641 416.35644531 C-115.52587891 414.89550781 -115.52587891 414.89550781 -116.86181641 412.98144531 C-117.30783203 412.35496094 -117.75384766 411.72847656 -118.21337891 411.08300781 C-119.23681641 409.35644531 -119.23681641 409.35644531 -119.23681641 407.35644531 C-119.89681641 407.35644531 -120.55681641 407.35644531 -121.23681641 407.35644531 C-122.68208377 405.62096362 -124.04553861 403.81668568 -125.36181641 401.98144531 C-126.08626953 400.98371094 -126.81072266 399.98597656 -127.55712891 398.95800781 C-129.23681641 396.35644531 -129.23681641 396.35644531 -129.23681641 394.35644531 C-129.89681641 394.35644531 -130.55681641 394.35644531 -131.23681641 394.35644531 C-132.4543457 393.03051758 -132.4543457 393.03051758 -133.81103516 391.17285156 C-134.31054688 390.49649658 -134.81005859 389.8201416 -135.32470703 389.12329102 C-135.85257812 388.39585693 -136.38044922 387.66842285 -136.92431641 386.91894531 C-138.01098927 385.44456912 -139.0982257 383.97060812 -140.18603516 382.49707031 C-140.97373291 381.42489258 -140.97373291 381.42489258 -141.77734375 380.33105469 C-145.27201346 375.60290337 -148.91565526 370.99051305 -152.61181641 366.41894531 C-155.29287975 363.01605722 -155.68877909 360.35683079 -155.63818359 355.99951172 C-154.8489461 350.80225798 -151.99668778 346.51478541 -149.36181641 342.04394531 C-148.26020713 340.11037821 -147.15864283 338.17678549 -146.05712891 336.24316406 C-145.31873779 334.9779895 -145.31873779 334.9779895 -144.56542969 333.68725586 C-143.37953436 331.60681803 -142.28345025 329.50958268 -141.23681641 327.35644531 C-140.57681641 327.35644531 -139.91681641 327.35644531 -139.23681641 327.35644531 C-139.05119141 326.24269531 -139.05119141 326.24269531 -138.86181641 325.10644531 C-138.2819494 322.55503047 -137.49972902 320.62968801 -136.23681641 318.35644531 C-135.57681641 318.35644531 -134.91681641 318.35644531 -134.23681641 318.35644531 C-134.05566284 317.49164551 -134.05566284 317.49164551 -133.87084961 316.609375 C-133.207764 314.25321252 -132.30118689 312.43386578 -131.09228516 310.30957031 C-130.44743164 309.16488281 -130.44743164 309.16488281 -129.78955078 307.99707031 C-129.33902344 307.20816406 -128.88849609 306.41925781 -128.42431641 305.60644531 C-125.20005596 299.92492911 -122.11048804 294.22436222 -119.23681641 288.35644531 C-118.57681641 288.35644531 -117.91681641 288.35644531 -117.23681641 288.35644531 C-116.98416016 287.504375 -116.73150391 286.65230469 -116.47119141 285.77441406 C-115.14897848 282.1132232 -113.45985159 279.02234038 -111.48681641 275.66894531 C-110.76453001 274.4312076 -110.04318536 273.19291987 -109.32275391 271.95410156 C-108.79053223 271.04168701 -108.79053223 271.04168701 -108.24755859 270.11083984 C-106.8211063 267.634877 -105.4649861 265.12305456 -104.11181641 262.60644531 C-102.23406545 259.13514354 -100.28445971 255.73028247 -98.23681641 252.35644531 C-93.12518562 243.9215872 -88.5768662 235.20937874 -84.23681641 226.35644531 C-83.57681641 226.35644531 -82.91681641 226.35644531 -82.23681641 226.35644531 C-82.13755859 225.80859375 -82.03830078 225.26074219 -81.93603516 224.69628906 C-80.77510912 220.81140251 -78.43554573 217.5458051 -76.31884766 214.11035156 C-74.97321534 211.45355116 -74.97321534 211.45355116 -75.80322266 208.95410156 C-77.962051 205.04232814 -80.18998849 201.18178866 -82.49072266 197.35253906 C-85.23681641 192.67512663 -85.23681641 192.67512663 -85.23681641 189.35644531 C-85.89681641 189.35644531 -86.55681641 189.35644531 -87.23681641 189.35644531 C-87.56552734 188.66421875 -87.89423828 187.97199219 -88.23291016 187.25878906 C-91.17082568 181.21575957 -94.31750233 175.41183757 -97.79931641 169.66894531 C-98.18522949 169.02578369 -98.57114258 168.38262207 -98.96875 167.7199707 C-100.57069079 165.05907931 -102.1843155 162.4341029 -103.92431641 159.86035156 C-107.89649378 153.71024739 -108.45993599 147.55817341 -107.23681641 140.35644531 C-105.04931641 137.60644531 -105.04931641 137.60644531 -102.23681641 135.35644531 C-100.39606082 132.44606147 -98.80563655 129.42065147 -97.23681641 126.35644531 C-96.57681641 126.35644531 -95.91681641 126.35644531 -95.23681641 126.35644531 C-94.96587158 125.63118652 -94.69492676 124.90592773 -94.41577148 124.15869141 C-93.263859 121.42072256 -91.93877544 119.04146098 -90.37353516 116.52050781 C-89.81601562 115.62074219 -89.25849609 114.72097656 -88.68408203 113.79394531 C-88.10335937 112.86582031 -87.52263672 111.93769531 -86.92431641 110.98144531 C-86.35519531 110.06105469 -85.78607422 109.14066406 -85.19970703 108.19238281 C-82.72420801 104.21339473 -80.23192275 100.27794412 -77.48291016 96.48144531 C-75.65779663 93.94215693 -74.08189778 91.48159754 -72.61181641 88.73144531 C-71.995 87.60029297 -71.995 87.60029297 -71.36572266 86.44628906 C-70.99318359 85.75664062 -70.62064453 85.06699219 -70.23681641 84.35644531 C-68.54931641 81.29394531 -68.54931641 81.29394531 -67.23681641 79.35644531 C-66.57681641 79.35644531 -65.91681641 79.35644531 -65.23681641 79.35644531 C-65.05119141 78.49019531 -65.05119141 78.49019531 -64.86181641 77.60644531 C-64.23032817 75.33308764 -63.3482345 73.43109242 -62.23681641 71.35644531 C-61.57681641 71.35644531 -60.91681641 71.35644531 -60.23681641 71.35644531 C-60.00994141 70.71707031 -59.78306641 70.07769531 -59.54931641 69.41894531 C-57.74940094 65.21914255 -55.50166907 61.31993747 -53.23681641 57.35644531 C-52.67994141 56.34582031 -52.12306641 55.33519531 -51.54931641 54.29394531 C-51.11619141 53.65457031 -50.68306641 53.01519531 -50.23681641 52.35644531 C-49.57681641 52.35644531 -48.91681641 52.35644531 -48.23681641 52.35644531 C-47.82387329 51.25768066 -47.82387329 51.25768066 -47.40258789 50.13671875 C-46.30817172 47.52662212 -45.07798544 45.27060881 -43.58447266 42.87207031 C-43.06062988 42.02717041 -42.53678711 41.18227051 -41.99707031 40.31176758 C-41.43681152 39.41901123 -40.87655273 38.52625488 -40.29931641 37.60644531 C-39.72101074 36.68210693 -39.14270508 35.75776855 -38.546875 34.80541992 C-37.35698447 32.90749401 -36.16492048 31.01092902 -34.97070312 29.11572266 C-33.36076602 26.55369659 -31.76793979 23.98182599 -30.17822266 21.40722656 C-29.24034375 19.91055391 -28.30159085 18.41442846 -27.36181641 16.91894531 C-26.94681885 16.24057617 -26.53182129 15.56220703 -26.10424805 14.86328125 C-23.12532358 10.18135685 -19.72751085 6.6270108 -15.23681641 3.35644531 C-14.58501404 2.84116776 -13.93321167 2.3258902 -13.26165771 1.79499817 C-8.85040414 -0.30290409 -4.82579072 -0.04592979 0 0 Z M-6.58692932 37.6089325 C-8.25367963 40.73800449 -9.48296323 43.84921255 -10.51361084 47.23799133 C-11.52567506 50.20258615 -13.19515618 52.46648854 -15.11181641 54.91894531 C-17.69701634 58.50269403 -19.83276733 62.16808876 -21.91650391 66.05957031 C-23.91358523 69.5337828 -26.24385822 72.7508109 -28.58837891 75.99707031 C-32.1352635 80.74737746 -32.1352635 80.74737746 -33.23681641 86.35644531 C-33.89681641 86.35644531 -34.55681641 86.35644531 -35.23681641 86.35644531 C-36.91067282 88.86722994 -38.46141908 91.38154575 -39.98681641 93.98144531 C-40.9719088 95.62710746 -41.95898304 97.27158444 -42.94775391 98.91503906 C-43.74004395 100.2335083 -43.74004395 100.2335083 -44.54833984 101.57861328 C-47.50429194 106.44165882 -50.55600983 111.24323594 -53.61181641 116.04394531 C-54.48531738 117.42283936 -54.48531738 117.42283936 -55.37646484 118.82958984 C-57.87613419 122.75466074 -60.39578581 126.62475178 -63.15087891 130.37597656 C-65.4279465 133.02322247 -65.4279465 133.02322247 -65.23681641 135.35644531 C-54.13284591 135.53713821 -43.02868135 135.70203131 -31.92431641 135.85644531 C-31.07075939 135.86832256 -30.21720238 135.88019981 -29.33778 135.89243698 C3.17532552 136.33988978 35.68475849 136.44406141 68.20068359 136.41894531 C69.31688206 136.41808929 70.43308052 136.41723328 71.58310318 136.41635132 C85.30981314 136.40503528 99.03649914 136.38507056 112.76318359 136.35644531 C113.05580078 135.59307861 113.34841797 134.82971191 113.64990234 134.04321289 C115.00992542 130.76096421 116.80992052 128.0122076 118.76318359 125.04394531 C119.58313432 123.78804831 120.40210973 122.5315141 121.22021484 121.27441406 C121.64254395 120.62649902 122.06487305 119.97858398 122.5 119.31103516 C124.52149634 116.18306846 126.48545205 113.01994956 128.45068359 109.85644531 C137.07758314 96.00480379 145.86149307 82.25275026 154.77050781 68.58105469 C158.7207882 62.48742768 162.50166913 56.2940454 166.23657227 50.06640625 C166.66945557 49.3487207 167.10233887 48.63103516 167.54833984 47.89160156 C167.92869385 47.25617432 168.30904785 46.62074707 168.70092773 45.96606445 C169.76318359 44.35644531 169.76318359 44.35644531 171.76318359 42.35644531 C171.76318359 41.36644531 171.76318359 40.37644531 171.76318359 39.35644531 C172.42318359 39.35644531 173.08318359 39.35644531 173.76318359 39.35644531 C176.07910382 36.13530374 176.07910382 36.13530374 176.76318359 32.35644531 C172.09018123 32.29378704 167.41716575 32.23222008 162.74413681 32.17157555 C160.99385303 32.14885401 159.24357076 32.12601661 157.49328995 32.1030674 C146.67772276 31.96202585 135.86229373 31.83987506 125.04614258 31.75366211 C120.87629799 31.71939261 116.70645906 31.68447822 112.53662109 31.64941406 C110.9552407 31.6365162 110.9552407 31.6365162 109.34191322 31.62335777 C96.56451345 31.51507492 83.79661788 31.30889518 71.02437878 30.92555809 C62.99610893 30.6846936 54.96792865 30.49937054 46.93735218 30.35463905 C42.17043771 30.2650722 37.40935183 30.1420935 32.64572144 29.94140625 C10.84575941 27.70425508 10.84575941 27.70425508 -6.58692932 37.6089325 Z M203.76318359 46.35644531 C203.76318359 47.34644531 203.76318359 48.33644531 203.76318359 49.35644531 C203.10318359 49.35644531 202.44318359 49.35644531 201.76318359 49.35644531 C200.5362057 50.82223603 200.5362057 50.82223603 199.38037109 52.75097656 C198.71328125 53.81348633 198.71328125 53.81348633 198.03271484 54.89746094 C197.57251953 55.64705078 197.11232422 56.39664063 196.63818359 57.16894531 C196.17025391 57.90693359 195.70232422 58.64492188 195.22021484 59.40527344 C192.48569248 63.55588387 192.48569248 63.55588387 191.76318359 68.35644531 C191.10318359 68.35644531 190.44318359 68.35644531 189.76318359 68.35644531 C188.56824559 69.90234269 188.56824559 69.90234269 187.43505859 71.95800781 C186.97188232 72.74771973 186.50870605 73.53743164 186.03149414 74.35107422 C185.53045166 75.21909668 185.02940918 76.08711914 184.51318359 76.98144531 C179.95285483 84.73239031 175.2815229 92.39590537 170.45068359 99.98144531 C169.88897461 100.86783691 169.32726562 101.75422852 168.74853516 102.66748047 C165.35154464 107.99063051 161.80607576 113.15661652 158.05932617 118.24072266 C156.5019891 120.3692685 156.5019891 120.3692685 156.76318359 123.35644531 C156.10318359 123.35644531 155.44318359 123.35644531 154.76318359 123.35644531 C154.47185547 123.90171875 154.18052734 124.44699219 153.88037109 125.00878906 C151.14808832 130.03515832 148.20545396 134.71160189 144.80224609 139.31347656 C143.53429741 141.31826563 143.53429741 141.31826563 144.09912109 143.61816406 C144.31826172 144.19179688 144.53740234 144.76542969 144.76318359 145.35644531 C145.42318359 145.35644531 146.08318359 145.35644531 146.76318359 145.35644531 C146.88540283 145.93442871 147.00762207 146.51241211 147.13354492 147.10791016 C147.78346344 149.42886771 148.66019879 151.23419608 149.83740234 153.33300781 C150.25513916 154.08187256 150.67287598 154.8307373 151.10327148 155.60229492 C151.54791748 156.38741455 151.99256348 157.17253418 152.45068359 157.98144531 C152.90113037 158.78525635 153.35157715 159.58906738 153.81567383 160.41723633 C156.68063632 165.50861937 159.6165633 170.5487011 162.70458984 175.50878906 C163.76318359 177.35644531 163.76318359 177.35644531 164.76318359 180.35644531 C165.42318359 180.35644531 166.08318359 180.35644531 166.76318359 180.35644531 C166.89724609 180.948125 167.03130859 181.53980469 167.16943359 182.14941406 C169.05400093 189.15454924 173.58009346 195.40917528 177.32348633 201.55126953 C180.814999 207.33017527 183.86601286 213.25534458 186.76318359 219.35644531 C187.42318359 219.35644531 188.08318359 219.35644531 188.76318359 219.35644531 C188.89063965 219.94490234 189.0180957 220.53335938 189.14941406 221.13964844 C190.12687818 224.67002797 192.07010155 227.70246982 193.88818359 230.85644531 C194.28835693 231.55898438 194.68853027 232.26152344 195.10083008 232.98535156 C198.61121123 239.13427273 202.16976112 245.2557152 205.76318359 251.35644531 C209.21290909 249.05662831 209.7989501 247.62188228 211.51318359 243.91894531 C214.08015785 238.58605629 216.98712759 233.66615169 220.24755859 228.73144531 C223.06532918 224.37807247 223.06532918 224.37807247 223.76318359 219.35644531 C224.42318359 219.35644531 225.08318359 219.35644531 225.76318359 219.35644531 C226.08029297 218.68742188 226.39740234 218.01839844 226.72412109 217.32910156 C230.56691045 209.4205986 234.89247724 201.88337509 239.39599609 194.33691406 C239.79077148 193.67224121 240.18554688 193.00756836 240.59228516 192.32275391 C241.37436593 191.00939307 242.16281975 189.69980684 242.95751953 188.39404297 C245.22279055 184.64425745 245.22279055 184.64425745 245.76318359 180.35644531 C246.42318359 180.35644531 247.08318359 180.35644531 247.76318359 180.35644531 C248.19888672 179.45023438 248.63458984 178.54402344 249.08349609 177.61035156 C252.16531652 171.27859558 255.31236666 165.24841321 259.34130859 159.45410156 C264.01270547 152.90436673 264.01270547 152.90436673 265.76318359 145.35644531 C266.42318359 145.35644531 267.08318359 145.35644531 267.76318359 145.35644531 C268.63235246 143.9489331 269.48303508 142.52999321 270.32568359 141.10644531 C271.03917969 139.92308594 271.03917969 139.92308594 271.76708984 138.71582031 C272.92567927 136.46893837 272.92567927 136.46893837 272.61865234 134.32128906 C271.56223834 131.89491353 270.22106769 130.19616068 268.51318359 128.16894531 C264.70009439 123.53583692 261.02210007 118.81893386 257.38818359 114.04394531 C256.26198469 112.5660021 255.13568307 111.08813715 254.00927734 109.61035156 C253.46126465 108.89121582 252.91325195 108.17208008 252.34863281 107.43115234 C250.90021065 105.5357579 249.44537405 103.64563332 247.98583984 101.75878906 C247.34654541 100.93217773 247.34654541 100.93217773 246.69433594 100.08886719 C246.28393066 99.55841797 245.87352539 99.02796875 245.45068359 98.48144531 C241.61289375 93.51673512 237.94202936 88.45556597 234.35693359 83.30566406 C233.56802734 82.34080078 233.56802734 82.34080078 232.76318359 81.35644531 C232.10318359 81.35644531 231.44318359 81.35644531 230.76318359 81.35644531 C230.45380859 80.36644531 230.45380859 80.36644531 230.13818359 79.35644531 C228.27194107 75.28464345 225.78756832 71.66847533 222.76318359 68.35644531 C222.10318359 68.35644531 221.44318359 68.35644531 220.76318359 68.35644531 C220.36099609 67.24269531 220.36099609 67.24269531 219.95068359 66.10644531 C218.81041609 63.46582583 217.66938054 61.50091687 215.76318359 59.35644531 C215.10318359 59.35644531 214.44318359 59.35644531 213.76318359 59.35644531 C213.45380859 58.36644531 213.45380859 58.36644531 213.13818359 57.35644531 C211.27194107 53.28464345 208.78756832 49.66847533 205.76318359 46.35644531 C205.10318359 46.35644531 204.44318359 46.35644531 203.76318359 46.35644531 Z M-62.23681641 167.35644531 C-62.23681641 168.01644531 -62.23681641 168.67644531 -62.23681641 169.35644531 C-61.57681641 169.35644531 -60.91681641 169.35644531 -60.23681641 169.35644531 C-60.14787109 169.88238281 -60.05892578 170.40832031 -59.96728516 170.95019531 C-58.97954709 174.20392069 -57.27757371 176.95396153 -55.54931641 179.85644531 C-51.82359204 186.22966131 -48.45148168 192.70793304 -45.23681641 199.35644531 C-44.57681641 199.35644531 -43.91681641 199.35644531 -43.23681641 199.35644531 C-43.06472656 200.46246094 -43.06472656 200.46246094 -42.88916016 201.59082031 C-42.22236959 204.4176929 -41.34725691 206.1683294 -39.79931641 208.60644531 C-36.7827746 213.4696993 -33.83415611 218.36631836 -30.92431641 223.29394531 C-30.47967041 224.03999023 -30.03502441 224.78603516 -29.5769043 225.5546875 C-29.15916748 226.26141602 -28.74143066 226.96814453 -28.31103516 227.69628906 C-27.93551514 228.32913818 -27.55999512 228.9619873 -27.1730957 229.61401367 C-26.23681641 231.35644531 -26.23681641 231.35644531 -25.23681641 234.35644531 C-24.57681641 234.35644531 -23.91681641 234.35644531 -23.23681641 234.35644531 C-23.12595703 234.91332031 -23.01509766 235.47019531 -22.90087891 236.04394531 C-22.12740943 238.73743903 -20.974935 240.90720548 -19.61181641 243.35644531 C-19.07298828 244.32710938 -18.53416016 245.29777344 -17.97900391 246.29785156 C-16.26067079 249.31456643 -14.50391521 252.30558489 -12.73681641 255.29394531 C-9.27573907 261.17546426 -6.20912934 267.21584278 -3.23681641 273.35644531 C-2.57681641 273.35644531 -1.91681641 273.35644531 -1.23681641 273.35644531 C-1.11459717 273.93442871 -0.99237793 274.51241211 -0.86645508 275.10791016 C-0.21653656 277.42886771 0.66019879 279.23419608 1.83740234 281.33300781 C2.25513916 282.08187256 2.67287598 282.8307373 3.10327148 283.60229492 C3.54791748 284.38741455 3.99256348 285.17253418 4.45068359 285.98144531 C4.90113037 286.78525635 5.35157715 287.58906738 5.81567383 288.41723633 C8.68063632 293.50861937 11.6165633 298.5487011 14.70458984 303.50878906 C15.76318359 305.35644531 15.76318359 305.35644531 16.76318359 308.35644531 C17.42318359 308.35644531 18.08318359 308.35644531 18.76318359 308.35644531 C18.9159375 309.16855469 18.9159375 309.16855469 19.07177734 309.99707031 C19.94075967 312.96241112 21.31790651 315.41169478 22.82568359 318.10644531 C23.37353516 319.09128906 23.92138672 320.07613281 24.48583984 321.09082031 C25.118125 322.21230469 25.118125 322.21230469 25.76318359 323.35644531 C26.94794785 323.36675278 28.1327121 323.37706024 29.3533783 323.38768005 C40.63291476 323.4863245 51.91240708 323.58912617 63.19187069 323.69578457 C68.98784251 323.75046332 74.78381957 323.80378166 80.57983398 323.85375977 C86.19500247 323.90223238 91.81012374 323.95458009 97.42523384 324.00938606 C99.5453222 324.02944198 101.66542329 324.04820494 103.78553581 324.06551933 C116.18967257 324.16782061 128.56360625 324.47276167 140.95683098 325.00771904 C149.23306406 325.35754772 157.48255736 325.4889458 165.76708984 325.45410156 C167.12141364 325.45222283 168.47573813 325.45080589 169.83006287 325.44981384 C173.29361043 325.44610258 176.75711199 325.43637915 180.22064209 325.42510986 C183.79536314 325.4146414 187.37009207 325.4102634 190.94482422 325.40527344 C197.88429554 325.39473885 204.82373733 325.37781147 211.76318359 325.35644531 C210.77318359 323.04644531 209.78318359 320.73644531 208.76318359 318.35644531 C208.10318359 318.35644531 207.44318359 318.35644531 206.76318359 318.35644531 C206.64845703 317.61910156 206.53373047 316.88175781 206.41552734 316.12207031 C205.74873678 313.29519772 204.87362409 311.54456123 203.32568359 309.10644531 C200.30914179 304.24319133 197.3605233 299.34657227 194.45068359 294.41894531 C194.0060376 293.67290039 193.5613916 292.92685547 193.10327148 292.15820312 C192.68553467 291.45147461 192.26779785 290.74474609 191.83740234 290.01660156 C191.46188232 289.38375244 191.0863623 288.75090332 190.69946289 288.09887695 C189.76318359 286.35644531 189.76318359 286.35644531 188.76318359 283.35644531 C188.10318359 283.35644531 187.44318359 283.35644531 186.76318359 283.35644531 C186.63572754 282.76798828 186.50827148 282.17953125 186.37695312 281.57324219 C185.3994733 278.04280589 183.45607881 275.01056801 181.63818359 271.85644531 C181.23728516 271.15173096 180.83638672 270.4470166 180.42333984 269.72094727 C177.36168368 264.35272197 174.23906079 259.02082255 171.07568359 253.71191406 C169.76318359 251.35644531 169.76318359 251.35644531 168.76318359 248.35644531 C168.10318359 248.35644531 167.44318359 248.35644531 166.76318359 248.35644531 C166.64080322 247.78120117 166.51842285 247.20595703 166.39233398 246.61328125 C165.73916216 244.27027763 164.84757414 242.38657984 163.69677734 240.24707031 C163.29394531 239.49296875 162.89111328 238.73886719 162.47607422 237.96191406 C162.05519531 237.18460937 161.63431641 236.40730469 161.20068359 235.60644531 C160.7759375 234.81367188 160.35119141 234.02089844 159.91357422 233.20410156 C158.86735942 231.25273464 157.81712407 229.30364717 156.76318359 227.35644531 C156.10318359 227.35644531 155.44318359 227.35644531 154.76318359 227.35644531 C154.67423828 226.83050781 154.58529297 226.30457031 154.49365234 225.76269531 C153.50591428 222.50896993 151.8039409 219.75892909 150.07568359 216.85644531 C146.34995923 210.48322932 142.97784887 204.00495758 139.76318359 197.35644531 C139.10318359 197.35644531 138.44318359 197.35644531 137.76318359 197.35644531 C137.65361328 196.62683594 137.54404297 195.89722656 137.43115234 195.14550781 C136.72303254 192.18879706 135.7030904 190.28574785 134.07568359 187.73144531 C130.36459689 181.76143626 126.9077303 175.64553872 123.76318359 169.35644531 C122.79441284 169.34613785 121.82564209 169.33583038 120.82751465 169.32521057 C111.53683844 169.22592561 102.24620673 169.12309756 92.95560455 169.01710606 C88.18331016 168.96276715 83.41100966 168.90952711 78.63867188 168.85913086 C60.54898349 168.6674415 42.46817886 168.47072577 24.38818359 167.82519531 C7.47526174 167.22873351 -9.42579673 167.23923834 -26.34698486 167.28778076 C-30.41832933 167.29828276 -34.48968086 167.30263392 -38.56103516 167.30761719 C-46.45298029 167.318126 -54.34489248 167.33503259 -62.23681641 167.35644531 Z M-57.23681641 241.35644531 C-58.38764326 243.60401316 -59.53258499 245.85426279 -60.67431641 248.10644531 C-60.99980469 248.74066406 -61.32529297 249.37488281 -61.66064453 250.02832031 C-63.20745305 253.09004439 -64.62832421 255.96260152 -65.23681641 259.35644531 C-65.89681641 259.35644531 -66.55681641 259.35644531 -67.23681641 259.35644531 C-67.62353516 260.15308594 -68.01025391 260.94972656 -68.40869141 261.77050781 C-73.18433877 271.48729528 -73.18433877 271.48729528 -75.61181641 274.91894531 C-77.5141665 277.28421872 -77.5141665 277.28421872 -77.23681641 280.35644531 C-77.89681641 280.35644531 -78.55681641 280.35644531 -79.23681641 280.35644531 C-79.81431641 281.53207031 -80.39181641 282.70769531 -80.98681641 283.91894531 C-82.38735408 286.74002835 -83.87003414 289.46660924 -85.48681641 292.16894531 C-87.47744581 295.18868508 -87.47744581 295.18868508 -87.23681641 298.35644531 C-87.89681641 298.35644531 -88.55681641 298.35644531 -89.23681641 298.35644531 C-89.78208984 299.40960937 -90.32736328 300.46277344 -90.88916016 301.54785156 C-95.16519871 309.7443091 -99.55328769 317.80080807 -104.49243164 325.62036133 C-106.73821015 329.2049696 -106.73821015 329.2049696 -107.23681641 333.35644531 C-107.89681641 333.35644531 -108.55681641 333.35644531 -109.23681641 333.35644531 C-109.60033203 334.10667969 -109.96384766 334.85691406 -110.33837891 335.62988281 C-113.34117016 341.74325783 -116.49956414 347.63433788 -120.13525391 353.39550781 C-121.40007188 355.27220339 -121.40007188 355.27220339 -121.23681641 357.35644531 C-120.57681641 357.35644531 -119.91681641 357.35644531 -119.23681641 357.35644531 C-118.89650391 358.40832031 -118.89650391 358.40832031 -118.54931641 359.48144531 C-116.91995111 363.05053119 -114.80504571 365.39310381 -112.23681641 368.35644531 C-111.90681641 369.01644531 -111.57681641 369.67644531 -111.23681641 370.35644531 C-110.57681641 370.35644531 -109.91681641 370.35644531 -109.23681641 370.35644531 C-108.96869141 370.91332031 -108.70056641 371.47019531 -108.42431641 372.04394531 C-107.12782145 374.56869865 -105.81205318 376.99359016 -104.23681641 379.35644531 C-103.57681641 379.35644531 -102.91681641 379.35644531 -102.23681641 379.35644531 C-102.00994141 380.05769531 -101.78306641 380.75894531 -101.54931641 381.48144531 C-99.91995111 385.05053119 -97.80504571 387.39310381 -95.23681641 390.35644531 C-94.74181641 391.34644531 -94.74181641 391.34644531 -94.23681641 392.35644531 C-93.57681641 392.35644531 -92.91681641 392.35644531 -92.23681641 392.35644531 C-91.87136719 393.17048828 -91.87136719 393.17048828 -91.49853516 394.00097656 C-89.93873568 396.9129242 -88.04737951 399.41310491 -86.04931641 402.04394531 C-85.64712891 402.57503906 -85.24494141 403.10613281 -84.83056641 403.65332031 C-81.93561616 407.46730239 -78.99729284 411.24664515 -76.04541016 415.01660156 C-73.93097556 417.75212278 -71.86528933 420.52165686 -69.79931641 423.29394531 C-66.26838672 428.02805138 -62.62393123 432.64479099 -58.86572266 437.20019531 C-57.36182558 439.19096554 -56.26212976 441.0894208 -55.23681641 443.35644531 C-54.57681641 443.35644531 -53.91681641 443.35644531 -53.23681641 443.35644531 C-51.6027094 440.99033127 -50.09275627 438.62900976 -48.61181641 436.16894531 C-48.1717627 435.4494873 -47.73170898 434.7300293 -47.27832031 433.98876953 C-46.37125073 432.50533623 -45.46681355 431.02029028 -44.56494141 429.53369141 C-43.32555931 427.50192494 -42.06774033 425.48345385 -40.79931641 423.46972656 C-40.42887207 422.87893311 -40.05842773 422.28813965 -39.67675781 421.67944336 C-38.66338776 420.06367337 -37.649339 418.44832912 -36.63525391 416.83300781 C-35.07291802 414.54020865 -35.07291802 414.54020865 -35.23681641 412.35644531 C-34.57681641 412.35644531 -33.91681641 412.35644531 -33.23681641 412.35644531 C-31.19512156 409.45095649 -30.23681641 407.95502486 -30.23681641 404.35644531 C-29.57681641 404.35644531 -28.91681641 404.35644531 -28.23681641 404.35644531 C-26.19512156 401.45095649 -25.23681641 399.95502486 -25.23681641 396.35644531 C-24.57681641 396.35644531 -23.91681641 396.35644531 -23.23681641 396.35644531 C-21.8686216 394.67436599 -21.8686216 394.67436599 -20.61181641 392.54394531 C-19.94279297 391.48240234 -19.94279297 391.48240234 -19.26025391 390.39941406 C-18.01286777 388.29023324 -18.01286777 388.29023324 -18.23681641 385.35644531 C-17.57681641 385.35644531 -16.91681641 385.35644531 -16.23681641 385.35644531 C-14.97615106 383.6950594 -14.97615106 383.6950594 -13.76806641 381.50878906 C-13.28370117 380.68217773 -12.79933594 379.85556641 -12.30029297 379.00390625 C-11.52637207 377.66247559 -11.52637207 377.66247559 -10.73681641 376.29394531 C-5.53276823 367.4302557 -0.04340123 358.83508687 5.76318359 350.35644531 C5.34166016 349.669375 4.92013672 348.98230469 4.48583984 348.27441406 C3.93798828 347.37335938 3.39013672 346.47230469 2.82568359 345.54394531 C2.28041016 344.650625 1.73513672 343.75730469 1.17333984 342.83691406 C-0.23681641 340.35644531 -0.23681641 340.35644531 -1.23681641 337.35644531 C-1.89681641 337.35644531 -2.55681641 337.35644531 -3.23681641 337.35644531 C-3.42244141 336.52113281 -3.42244141 336.52113281 -3.61181641 335.66894531 C-4.29658496 333.13530167 -5.22815404 330.77723499 -6.23681641 328.35644531 C-6.89681641 328.35644531 -7.55681641 328.35644531 -8.23681641 328.35644531 C-8.32576172 327.83050781 -8.41470703 327.30457031 -8.50634766 326.76269531 C-9.49408572 323.50896993 -11.1960591 320.75892909 -12.92431641 317.85644531 C-16.65004077 311.48322932 -20.02215113 305.00495758 -23.23681641 298.35644531 C-23.89681641 298.35644531 -24.55681641 298.35644531 -25.23681641 298.35644531 C-25.42800049 297.47375977 -25.42800049 297.47375977 -25.62304688 296.57324219 C-26.6005267 293.04280589 -28.54392119 290.01056801 -30.36181641 286.85644531 C-30.76271484 286.15173096 -31.16361328 285.4470166 -31.57666016 284.72094727 C-34.63831632 279.35272197 -37.76093921 274.02082255 -40.92431641 268.71191406 C-42.23681641 266.35644531 -42.23681641 266.35644531 -43.23681641 263.35644531 C-43.89681641 263.35644531 -44.55681641 263.35644531 -45.23681641 263.35644531 C-45.39730469 262.53080078 -45.39730469 262.53080078 -45.56103516 261.68847656 C-46.37455428 258.88113021 -47.62393715 256.59519375 -49.04931641 254.04394531 C-49.58427734 253.08230469 -50.11923828 252.12066406 -50.67041016 251.12988281 C-52.51432245 247.86510044 -54.36101333 244.60302756 -56.23681641 241.35644531 C-56.56681641 241.35644531 -56.89681641 241.35644531 -57.23681641 241.35644531 Z M31.04304504 361.824646 C29.24785605 365.0965937 27.8848228 368.37015871 26.69715881 371.90498352 C25.14844641 375.96998355 22.6749939 379.3697258 20.20068359 382.91894531 C15.83192639 389.58871424 11.65440946 396.36870673 7.55395508 403.20629883 C5.47577943 406.65120616 3.34829695 409.96542712 0.94287109 413.19238281 C-1.52046902 416.12783617 -1.52046902 416.12783617 -1.23681641 419.35644531 C-1.89681641 419.35644531 -2.55681641 419.35644531 -3.23681641 419.35644531 C-4.92467543 421.59444295 -4.92467543 421.59444295 -6.61181641 424.41894531 C-7.19705078 425.35867188 -7.78228516 426.29839844 -8.38525391 427.26660156 C-9.6550049 429.38553202 -10.89317674 431.52361327 -12.10400391 433.67675781 C-14.99355462 438.76810419 -18.28378709 443.60573452 -21.52197266 448.47949219 C-22.00021484 449.20845703 -22.47845703 449.93742187 -22.97119141 450.68847656 C-23.40657227 451.34565674 -23.84195313 452.00283691 -24.29052734 452.67993164 C-25.40066413 454.32587317 -25.40066413 454.32587317 -25.23681641 456.35644531 C-25.89681641 456.35644531 -26.55681641 456.35644531 -27.23681641 456.35644531 C-27.23681641 457.01644531 -27.23681641 457.67644531 -27.23681641 458.35644531 C-21.52459344 458.43069398 -15.81235261 458.50344913 -10.10009766 458.57519531 C-8.75528131 458.59208688 -8.75528131 458.59208688 -7.38329697 458.60931969 C3.70990757 458.74764379 14.80313855 458.87359933 25.89672852 458.97680664 C26.93984727 458.98653787 27.98296602 458.99626909 29.05769444 459.0062952 C33.34328819 459.04604919 37.62888381 459.08551911 41.91449165 459.1237278 C54.75722266 459.23883019 67.59800106 459.39135331 80.43923855 459.61992836 C88.34225441 459.75914814 96.24523755 459.86433695 104.14907932 459.94374657 C108.81754788 459.99223699 113.48422732 460.05879688 118.15170288 460.16796875 C122.53036105 460.27004134 126.90711124 460.32526069 131.28689194 460.34465981 C132.88561376 460.36010238 134.48427945 460.3927515 136.08224869 460.44417381 C144.73572702 460.93040128 144.73572702 460.93040128 152.19906616 457.23721313 C154.0257556 454.67938518 155.41113118 452.18907771 156.76318359 449.35644531 C157.31355789 448.48505417 157.86393219 447.61366302 158.4309845 446.71586609 C160.00901828 444.37264476 160.00901828 444.37264476 159.76318359 441.35644531 C160.42318359 441.35644531 161.08318359 441.35644531 161.76318359 441.35644531 C163.43704001 438.84566069 164.98778627 436.33134487 166.51318359 433.73144531 C167.49827598 432.08578317 168.48535023 430.44130618 169.47412109 428.79785156 C170.00231445 427.91887207 170.53050781 427.03989258 171.07470703 426.13427734 C174.03065913 421.2712318 177.08237702 416.46965469 180.13818359 411.66894531 C181.01168457 410.29005127 181.01168457 410.29005127 181.90283203 408.88330078 C184.35034871 405.04012189 186.81111371 401.23568416 189.49365234 397.55175781 C191.49417569 394.73518622 193.1282465 391.98633709 194.70068359 388.91894531 C196.99628972 384.58412543 199.53985923 380.79082762 202.66162109 377.01269531 C204.04008034 375.27163852 204.04008034 375.27163852 203.76318359 372.35644531 C204.42318359 372.35644531 205.08318359 372.35644531 205.76318359 372.35644531 C207.21010941 370.25559187 208.53280042 368.17402715 209.82568359 365.98144531 C210.18984375 365.37816406 210.55400391 364.77488281 210.92919922 364.15332031 C212.27332655 361.91724897 213.59600589 359.69080073 214.76318359 357.35644531 C213.92920547 357.34613785 213.09522736 357.33583038 212.23597717 357.32521057 C204.25285036 357.22592697 196.26977492 357.12326642 188.28673649 357.01710606 C184.18572524 356.96268107 180.08470679 356.90942007 175.98364258 356.85913086 C144.87365218 356.47604662 144.87365218 356.47604662 131.52880859 355.89941406 C130.57489227 355.85879349 129.62097595 355.81817291 128.63815308 355.77632141 C127.64050934 355.73371689 126.6428656 355.69111237 125.61499023 355.6472168 C123.33107395 355.5498401 121.04713608 355.45296923 118.76318359 355.35644531 C117.70367052 355.31137785 117.70367052 355.31137785 116.62275314 355.26539993 C106.30054034 354.83078207 95.98110989 354.48390609 85.65136623 354.28999424 C81.06470946 354.20120815 76.48506937 354.07510699 71.90209961 353.86816406 C49.24020446 351.57373877 49.24020446 351.57373877 31.04304504 361.824646 Z " fill="#FF7247" transform="translate(418.23681640625,254.6435546875)"/>
<path d="M0 0 C1.02461797 -0.00705669 1.02461797 -0.00705669 2.06993529 -0.01425594 C4.36370263 -0.02759235 6.65724224 -0.02672085 8.95104504 -0.02589989 C10.61038007 -0.03249992 12.26971191 -0.03995164 13.92903966 -0.04818285 C18.49309385 -0.06820861 23.05709543 -0.07565413 27.62118733 -0.08096147 C32.54240121 -0.08877204 37.46357353 -0.10792866 42.38476086 -0.12538719 C54.27309269 -0.16490741 66.16142791 -0.18504905 78.04980901 -0.20284277 C83.65085384 -0.21161164 89.2518949 -0.2223446 94.85293674 -0.23282051 C113.47757494 -0.26684714 132.1022108 -0.29583294 150.72687531 -0.31031799 C155.55983324 -0.31413768 160.39279115 -0.31797836 165.22574902 -0.32188988 C166.42693291 -0.32285736 167.6281168 -0.32382484 168.86570021 -0.32482164 C188.31246938 -0.34141271 207.75899213 -0.39206933 227.20565376 -0.45705123 C247.17999345 -0.52325097 267.15420805 -0.55922094 287.128658 -0.56560647 C298.33993697 -0.56993171 309.5508568 -0.58735504 320.76202869 -0.63852882 C330.31286389 -0.6820235 339.86325272 -0.69800465 349.41417573 -0.67859526 C354.28325739 -0.66952813 359.15141893 -0.67316384 364.02037334 -0.71211815 C368.48783744 -0.74754981 372.9537161 -0.74525595 377.42119899 -0.71432357 C379.02766877 -0.70959627 380.63425077 -0.71808919 382.24054984 -0.74198087 C397.88164963 -0.96000158 410.47175518 4.66225394 422.12003613 15.26844215 C423.23185253 16.27777809 423.23185253 16.27777809 424.36612988 17.30750465 C428.0340436 20.79888778 430.44785299 23.41154843 432.12003613 28.26844215 C432.78003613 28.26844215 433.44003613 28.26844215 434.12003613 28.26844215 C434.64790722 29.37639137 434.64790722 29.37639137 435.18644238 30.5067234 C438.26169989 36.8258557 441.60670708 42.76839133 445.44034863 48.6551609 C452.12003613 59.04751192 452.12003613 59.04751192 452.12003613 63.26844215 C452.78003613 63.26844215 453.44003613 63.26844215 454.12003613 63.26844215 C457.12003613 68.89344215 457.12003613 68.89344215 457.12003613 72.26844215 C457.78003613 72.26844215 458.44003613 72.26844215 459.12003613 72.26844215 C459.64790722 73.25070778 459.64790722 73.25070778 460.18644238 74.25281715 C462.92011065 79.30617783 465.70887935 84.31493709 468.62003613 89.26844215 C471.32497417 93.8751052 473.91770869 98.52754105 476.45987988 103.2254734 C478.46522454 106.90115222 480.50654603 110.55558371 482.55753613 114.20594215 C482.93885693 114.88584206 483.32017773 115.56574196 483.7130537 116.26624489 C485.52462935 119.48412974 487.35601103 122.6858993 489.25284863 125.85437965 C489.8896455 126.91914528 490.52644238 127.9839109 491.18253613 129.08094215 C492.03525097 130.48279762 492.03525097 130.48279762 492.90519238 131.9129734 C494.12003613 134.26844215 494.12003613 134.26844215 494.12003613 137.26844215 C494.78003613 137.26844215 495.44003613 137.26844215 496.12003613 137.26844215 C496.96117783 138.70138714 497.792693 140.13998621 498.62003613 141.58094215 C499.08409863 142.38144997 499.54816113 143.18195778 500.02628613 144.0067234 C501.12003613 146.26844215 501.12003613 146.26844215 501.12003613 149.26844215 C501.78003613 149.26844215 502.44003613 149.26844215 503.12003613 149.26844215 C503.63566113 150.34094215 504.15128613 151.41344215 504.68253613 152.51844215 C507.01653984 157.19469696 509.66098524 161.66699323 512.31534863 166.16687965 C514.54589906 170.00033646 516.66267788 173.88858677 518.76066113 177.7957859 C519.71360893 179.5291651 520.73042181 181.22823086 521.79191113 182.8973484 C523.12003613 185.26844215 523.12003613 185.26844215 523.12003613 188.26844215 C523.78003613 188.26844215 524.44003613 188.26844215 525.12003613 188.26844215 C525.63566113 189.34094215 526.15128613 190.41344215 526.68253613 191.51844215 C529.09433261 196.38556937 531.90390509 200.99575658 534.72941113 205.6317234 C536.12003613 208.26844215 536.12003613 208.26844215 536.12003613 211.26844215 C536.78003613 211.26844215 537.44003613 211.26844215 538.12003613 211.26844215 C538.96117783 212.70138714 539.792693 214.13998621 540.62003613 215.58094215 C541.08409863 216.38144997 541.54816113 217.18195778 542.02628613 218.0067234 C543.12003613 220.26844215 543.12003613 220.26844215 543.12003613 223.26844215 C543.78003613 223.26844215 544.44003613 223.26844215 545.12003613 223.26844215 C545.66788769 224.39379372 546.21573925 225.51914528 546.78019238 226.6785984 C549.17731583 231.47179071 551.8462567 236.08520596 554.55753613 240.70594215 C556.41899336 243.88926638 558.27281526 247.07683683 560.12003613 250.26844215 C560.84344189 251.50425026 560.84344189 251.50425026 561.58146191 252.76502419 C562.03891796 253.56150368 562.49637402 254.35798317 562.96769238 255.1785984 C563.58849682 256.24993019 563.58849682 256.24993019 564.22184277 257.34290504 C565.12003613 259.26844215 565.12003613 259.26844215 565.12003613 262.26844215 C565.78003613 262.26844215 566.44003613 262.26844215 567.12003613 262.26844215 C567.59441113 263.27906715 568.06878613 264.28969215 568.55753613 265.33094215 C570.67917403 269.58937251 573.09570632 273.63912063 575.55753613 277.70594215 C581.03715642 286.77322216 581.03715642 286.77322216 583.18253613 290.51844215 C583.56538769 291.1835984 583.94823925 291.84875465 584.34269238 292.53406715 C585.12003613 294.26844215 585.12003613 294.26844215 585.12003613 297.26844215 C585.78003613 297.26844215 586.44003613 297.26844215 587.12003613 297.26844215 C587.66530956 298.41119606 587.66530956 298.41119606 588.22159863 299.5770359 C591.0389121 305.36336435 594.00686473 310.75016953 597.66691113 316.0379734 C600.9186273 321.0291829 603.87311419 326.40924985 605.12003613 332.26844215 C605.78003613 332.26844215 606.44003613 332.26844215 607.12003613 332.26844215 C607.12003613 333.58844215 607.12003613 334.90844215 607.12003613 336.26844215 C607.78003613 336.26844215 608.44003613 336.26844215 609.12003613 336.26844215 C609.59441113 337.27906715 610.06878613 338.28969215 610.55753613 339.33094215 C612.9843416 344.22804424 615.84886409 348.84588513 618.77018261 353.46009254 C619.94803887 355.36759428 621.04706507 357.30006587 622.12003613 359.26844215 C622.4980537 359.94471657 622.87607128 360.62099098 623.26554394 361.31775856 C626.97315857 369.02394414 626.86451464 376.99630646 626.86124706 385.379282 C626.86995385 387.86990743 626.94260537 390.35329529 627.01847363 392.8426609 C627.18552495 404.87647982 624.25784574 413.02338748 618.12003613 423.26844215 C617.00856403 425.306141 615.90283337 427.3470036 614.80753613 429.39344215 C614.33445019 430.24809059 613.86136425 431.10273903 613.37394238 431.9832859 C611.87748845 434.71046828 610.48070281 437.47151619 609.12003613 440.26844215 C608.46003613 440.26844215 607.80003613 440.26844215 607.12003613 440.26844215 C607.00974072 440.82402809 606.8994453 441.37961403 606.78580761 441.9520359 C606.00611199 444.66481627 604.83542629 446.86142889 603.46769238 449.33094215 C602.93853222 450.29258278 602.40937206 451.2542234 601.86417675 452.24500465 C601.03176464 453.74160622 601.03176464 453.74160622 600.18253613 455.26844215 C599.08955451 457.24731414 597.99708631 459.2264698 596.90519238 461.20594215 C596.41929638 462.08121559 595.93340038 462.95648903 595.43278027 463.8582859 C594.2801414 465.97449399 593.18123758 468.10526001 592.12003613 470.26844215 C591.46003613 470.26844215 590.80003613 470.26844215 590.12003613 470.26844215 C589.86609081 471.12180153 589.6121455 471.9751609 589.35050488 472.85437965 C588.04122083 476.48712334 586.38162747 479.56198937 584.43253613 482.89344215 C583.90297314 483.80476906 583.90297314 483.80476906 583.36271191 484.73450661 C582.28739565 486.58248069 581.20470999 488.42594815 580.12003613 490.26844215 C578.91103854 492.33055285 577.70266149 494.39302755 576.49503613 496.45594215 C575.92655956 497.42660622 575.358083 498.39727028 574.77237988 499.3973484 C572.64662248 503.09104033 570.62670221 506.83773087 568.60441113 510.58875465 C566.61369677 514.18251793 564.48004004 517.68113924 562.31925488 521.17469215 C560.98525776 523.34427634 560.98525776 523.34427634 560.12003613 526.26844215 C559.46003613 526.26844215 558.80003613 526.26844215 558.12003613 526.26844215 C557.97114941 527.06894997 557.97114941 527.06894997 557.81925488 527.88562965 C555.39243718 536.1557905 549.81062359 543.95899388 545.28409863 551.24500465 C543.98025211 553.35618646 543.98025211 553.35618646 543.12003613 556.26844215 C542.46003613 556.26844215 541.80003613 556.26844215 541.12003613 556.26844215 C541.01046581 556.99805153 540.9008955 557.7276609 540.78800488 558.47937965 C540.07988507 561.43609041 539.05994293 563.33913961 537.43253613 565.89344215 C534.6491491 570.37482843 532.08287382 574.93176785 529.57706738 579.57312965 C527.45925411 583.49080031 525.2901288 587.37955926 523.12003613 591.26844215 C522.46003613 591.26844215 521.80003613 591.26844215 521.12003613 591.26844215 C520.93441113 592.38219215 520.93441113 592.38219215 520.74503613 593.51844215 C520.16516911 596.069857 519.38294873 597.99519946 518.12003613 600.26844215 C517.46003613 600.26844215 516.80003613 600.26844215 516.12003613 600.26844215 C515.99926708 600.84497536 515.87849804 601.42150856 515.75406933 602.01551247 C515.09098372 604.37167495 514.18440661 606.19102168 512.97550488 608.31531715 C512.54560253 609.07844215 512.11570019 609.84156715 511.6727705 610.62781715 C511.22224316 611.4167234 510.77171581 612.20562965 510.30753613 613.01844215 C507.08327568 618.69995836 503.99370776 624.40052525 501.12003613 630.26844215 C500.46003613 630.26844215 499.80003613 630.26844215 499.12003613 630.26844215 C498.86737988 631.12051247 498.61472363 631.97258278 498.35441113 632.8504734 C497.0321982 636.51166426 495.3430713 639.60254709 493.37003613 642.95594215 C492.64774973 644.19367987 491.92640508 645.43196759 491.20597363 646.6707859 C490.85115917 647.27906227 490.49634472 647.88733864 490.13077831 648.51404762 C488.70432602 650.99001047 487.34820582 653.5018329 485.99503613 656.01844215 C483.57770924 660.495464 480.99540498 664.84789828 478.31925488 669.17469215 C476.98525776 671.34427634 476.98525776 671.34427634 476.12003613 674.26844215 C475.46003613 674.26844215 474.80003613 674.26844215 474.12003613 674.26844215 C473.99636669 674.84860085 473.87269726 675.42875954 473.74528027 676.02649879 C473.10974618 678.30533891 472.26638371 680.0773553 471.11612988 682.1395359 C470.70910839 682.8722068 470.30208691 683.6048777 469.88273144 684.35975075 C469.44541698 685.13399391 469.00810253 685.90823708 468.55753613 686.70594215 C468.10862011 687.50854469 467.65970409 688.31114723 467.19718456 689.13807106 C464.52749029 693.87862315 461.75887974 698.53358532 458.87003613 703.14344215 C455.82761734 708.0015959 453.24752866 712.94671368 450.74894238 718.1004734 C448.51434286 722.44642114 445.98964017 726.59147362 443.44108105 730.75867653 C441.16180765 734.4947803 439.02466467 738.26326993 436.99503613 742.14344215 C433.14892068 749.30297007 428.21853147 755.8669177 422.12003613 761.26844215 C421.46003613 761.26844215 420.80003613 761.26844215 420.12003613 761.26844215 C420.12003613 761.92844215 420.12003613 762.58844215 420.12003613 763.26844215 C414.15326382 768.06780248 407.49151988 771.54351195 400.37784863 774.3504734 C398.18892798 775.06997845 398.18892798 775.06997845 397.12003613 776.26844215 C394.97251964 776.36646179 392.82170539 776.39215369 390.6719532 776.39148998 C389.64453542 776.39322075 389.64453542 776.39322075 388.59636173 776.39498648 C386.27235596 776.39765976 383.94841774 776.39312519 381.6244154 776.38869667 C379.95300803 776.38913223 378.28160073 776.39000685 376.61019379 776.39128584 C371.99480711 776.39353385 367.37944341 776.38950536 362.76405966 776.38450778 C357.79538733 776.38020782 352.82671639 776.38164937 347.85804272 776.38241005 C339.2420111 776.38293558 330.62598703 776.3797858 322.00995731 776.37417221 C309.55247148 776.36606106 297.09498931 776.36344239 284.63750113 776.36218422 C264.42830825 776.35999309 244.2191194 776.35333136 224.0099287 776.34388161 C204.37321016 776.33470906 184.73649271 776.32762746 165.09977245 776.32337379 C163.89030197 776.32311107 162.68083148 776.32284835 161.43471038 776.32257766 C155.36743216 776.32127267 149.30015393 776.32000895 143.2328757 776.31876576 C92.8619264 776.30839125 42.49098146 776.29077129 -7.87996387 776.26844215 C-8.20996387 775.60844215 -8.53996387 774.94844215 -8.87996387 774.26844215 C-10.54274474 773.59923861 -12.23695973 773.00723992 -13.94246387 772.45594215 C-18.95831916 770.70759573 -23.77735736 768.72450609 -27.87996387 765.26844215 C-27.87996387 764.60844215 -27.87996387 763.94844215 -27.87996387 763.26844215 C-28.72494434 762.90879372 -28.72494434 762.90879372 -29.58699512 762.54187965 C-32.36500801 760.999065 -34.31632225 759.13342109 -36.56746387 756.89344215 C-37.74888966 755.73715309 -37.74888966 755.73715309 -38.95418262 754.55750465 C-40.82394777 752.3350252 -41.49851347 751.1002265 -41.87996387 748.26844215 C-42.53996387 748.26844215 -43.19996387 748.26844215 -43.87996387 748.26844215 C-44.72110558 746.83549717 -45.55262075 745.3968981 -46.37996387 743.95594215 C-46.84402637 743.15543434 -47.30808887 742.35492653 -47.78621387 741.5301609 C-48.87996387 739.26844215 -48.87996387 739.26844215 -48.87996387 736.26844215 C-49.53996387 736.26844215 -50.19996387 736.26844215 -50.87996387 736.26844215 C-51.23187794 735.52980934 -51.583792 734.79117653 -51.94637012 734.0301609 C-55.02162764 727.71102861 -58.36663483 721.76849297 -62.20027637 715.8817234 C-68.87996387 705.48937239 -68.87996387 705.48937239 -68.87996387 701.26844215 C-69.53996387 701.26844215 -70.19996387 701.26844215 -70.87996387 701.26844215 C-73.87996387 695.64344215 -73.87996387 695.64344215 -73.87996387 692.26844215 C-74.53996387 692.26844215 -75.19996387 692.26844215 -75.87996387 692.26844215 C-76.20867481 691.57621559 -76.53738575 690.88398903 -76.87605762 690.1707859 C-80.22649797 683.27922974 -83.89660042 676.73807598 -87.98323536 670.25843239 C-90.87996387 665.58454696 -90.87996387 665.58454696 -90.87996387 662.26844215 C-91.53996387 662.26844215 -92.19996387 662.26844215 -92.87996387 662.26844215 C-93.23187794 661.52980934 -93.583792 660.79117653 -93.94637012 660.0301609 C-97.02162764 653.71102861 -100.36663483 647.76849297 -104.20027637 641.8817234 C-110.87996387 631.48937239 -110.87996387 631.48937239 -110.87996387 627.26844215 C-111.53996387 627.26844215 -112.19996387 627.26844215 -112.87996387 627.26844215 C-113.18547169 626.62262184 -113.4909795 625.97680153 -113.80574512 625.3114109 C-119.47777537 613.63182186 -126.13317998 602.49892172 -132.81355762 591.3739109 C-133.27665333 590.59878151 -133.73974903 589.82365211 -134.21687794 589.02503395 C-135.09955397 587.55023739 -135.987996 586.07887249 -136.88289356 584.61145973 C-139.87996387 579.60268243 -139.87996387 579.60268243 -139.87996387 576.26844215 C-140.53996387 576.26844215 -141.19996387 576.26844215 -141.87996387 576.26844215 C-142.39558887 575.19594215 -142.91121387 574.12344215 -143.44246387 573.01844215 C-145.85426036 568.15131494 -148.66383284 563.54112773 -151.48933887 558.9051609 C-152.87996387 556.26844215 -152.87996387 556.26844215 -152.87996387 553.26844215 C-153.53996387 553.26844215 -154.19996387 553.26844215 -154.87996387 553.26844215 C-155.72110558 551.83549717 -156.55262075 550.3968981 -157.37996387 548.95594215 C-157.84402637 548.15543434 -158.30808887 547.35492653 -158.78621387 546.5301609 C-159.87996387 544.26844215 -159.87996387 544.26844215 -159.87996387 541.26844215 C-160.53996387 541.26844215 -161.19996387 541.26844215 -161.87996387 541.26844215 C-162.42781544 540.14309059 -162.975667 539.01773903 -163.54012012 537.8582859 C-165.93724358 533.0650936 -168.60618444 528.45167835 -171.31746387 523.83094215 C-173.17892111 520.64761792 -175.03274301 517.46004748 -176.87996387 514.26844215 C-177.60336964 513.03263405 -177.60336964 513.03263405 -178.34138966 511.77186012 C-178.79884571 510.97538063 -179.25630177 510.17890114 -179.72762012 509.3582859 C-180.34842457 508.28695412 -180.34842457 508.28695412 -180.98177052 507.19397926 C-181.87996387 505.26844215 -181.87996387 505.26844215 -181.87996387 502.26844215 C-182.53996387 502.26844215 -183.19996387 502.26844215 -183.87996387 502.26844215 C-184.35433887 501.25781715 -184.82871387 500.24719215 -185.31746387 499.20594215 C-187.43910178 494.94751179 -189.85563406 490.89776368 -192.31746387 486.83094215 C-197.79708417 477.76366215 -197.79708417 477.76366215 -199.94246387 474.01844215 C-200.32531544 473.3532859 -200.708167 472.68812965 -201.10262012 472.00281715 C-201.87996387 470.26844215 -201.87996387 470.26844215 -201.87996387 467.26844215 C-202.53996387 467.26844215 -203.19996387 467.26844215 -203.87996387 467.26844215 C-204.20867481 466.57621559 -204.53738575 465.88398903 -204.87605762 465.1707859 C-207.81375248 459.12821031 -210.95757093 453.32166156 -214.44246387 447.58094215 C-214.82837696 446.94503151 -215.21429005 446.30912086 -215.61189747 445.6539402 C-216.35992062 444.42262572 -217.10812315 443.19142019 -217.85652637 441.96033669 C-219.2467686 439.66205935 -220.60817915 437.34964984 -221.94246387 435.01844215 C-222.32531544 434.3532859 -222.708167 433.68812965 -223.10262012 433.00281715 C-223.87996387 431.26844215 -223.87996387 431.26844215 -223.87996387 428.26844215 C-224.53996387 428.26844215 -225.19996387 428.26844215 -225.87996387 428.26844215 C-227.22322919 425.68985249 -228.55471053 423.10626795 -229.87996387 420.51844215 C-230.26152637 419.78883278 -230.64308887 419.0592234 -231.03621387 418.30750465 C-231.39715137 417.59852028 -231.75808887 416.8895359 -232.12996387 416.15906715 C-232.63269825 415.1850193 -232.63269825 415.1850193 -233.14558887 414.19129372 C-233.87996387 412.26844215 -233.87996387 412.26844215 -233.87996387 408.26844215 C-234.86996387 407.93844215 -235.85996387 407.60844215 -236.87996387 407.26844215 C-236.92931897 401.89329311 -236.96566189 396.51827531 -236.98982716 391.14295387 C-236.99989872 389.31350343 -237.01355663 387.48406912 -237.03084278 385.65467262 C-237.05504064 383.02849282 -237.0664352 380.40252541 -237.07527637 377.77625465 C-237.08559895 376.95537361 -237.09592152 376.13449257 -237.10655689 375.28873634 C-237.10695572 373.28055073 -237.00245927 371.27288833 -236.87996387 369.26844215 C-236.21996387 368.60844215 -235.55996387 367.94844215 -234.87996387 367.26844215 C-234.25286403 365.78620615 -233.67612828 364.28237155 -233.12996387 362.76844215 C-231.28007277 357.95872528 -228.90441564 353.74245089 -226.14949512 349.3973484 C-224.74066218 347.20768929 -224.74066218 347.20768929 -223.87996387 344.26844215 C-223.21996387 344.26844215 -222.55996387 344.26844215 -221.87996387 344.26844215 C-221.79746387 343.58781715 -221.71496387 342.90719215 -221.62996387 342.20594215 C-220.33066744 337.1170311 -217.29026607 332.91203175 -214.50496387 328.51844215 C-210.59395971 322.31895567 -207.12039617 315.84145173 -203.87996387 309.26844215 C-203.21996387 309.26844215 -202.55996387 309.26844215 -201.87996387 309.26844215 C-201.76676807 308.70850563 -201.65357227 308.14856911 -201.5369463 307.57166481 C-200.78683471 304.94195365 -199.68380222 302.81446573 -198.36824512 300.41687965 C-197.85713184 299.48230934 -197.34601856 298.54773903 -196.819417 297.5848484 C-196.28252247 296.61418434 -195.74562794 295.64352028 -195.19246387 294.64344215 C-194.41612598 293.22225075 -194.41612598 293.22225075 -193.6241045 291.7723484 C-190.57023009 286.21224332 -187.40157369 280.74642908 -184.0681963 275.34900856 C-182.74486408 273.18961054 -182.74486408 273.18961054 -181.87996387 270.26844215 C-181.21996387 270.26844215 -180.55996387 270.26844215 -179.87996387 270.26844215 C-179.76749317 269.70923073 -179.65502247 269.1500193 -179.53914356 268.57386208 C-178.7824244 265.92730688 -177.66362886 263.79165819 -176.33308887 261.3817234 C-175.55965137 259.97310036 -175.55965137 259.97310036 -174.77058887 258.53602028 C-174.22918262 257.5608445 -173.68777637 256.58566872 -173.12996387 255.58094215 C-172.60402637 254.62510231 -172.07808887 253.66926247 -171.53621387 252.68445778 C-169.98943909 249.87614268 -168.43609769 247.07158051 -166.87996387 244.26844215 C-166.13456348 242.9253196 -166.13456348 242.9253196 -165.3741045 241.55506325 C-164.21017426 239.45908592 -163.04552112 237.36351503 -161.87996387 235.26844215 C-161.21996387 235.26844215 -160.55996387 235.26844215 -159.87996387 235.26844215 C-159.76821827 234.71140602 -159.65647266 234.15436989 -159.54134083 233.58045387 C-158.77488943 230.90112766 -157.63597154 228.72121876 -156.29793262 226.27625465 C-155.77779591 225.32363747 -155.25765919 224.37102028 -154.72176075 223.3895359 C-154.17584278 222.40082497 -153.62992481 221.41211403 -153.06746387 220.39344215 C-152.53314747 219.41246559 -151.99883106 218.43148903 -151.44832325 217.4207859 C-147.07010241 209.43982246 -147.07010241 209.43982246 -144.60262012 205.81531715 C-143.16095463 203.68387519 -142.08011225 201.7688131 -141.12996387 199.39344215 C-140.71746387 198.36219215 -140.30496387 197.33094215 -139.87996387 196.26844215 C-139.21996387 196.26844215 -138.55996387 196.26844215 -137.87996387 196.26844215 C-137.46424122 195.19723122 -137.46424122 195.19723122 -137.04012012 194.10437965 C-133.47013794 185.37775654 -128.80734438 177.26228749 -123.86409473 169.25721169 C-122.23592034 166.60803847 -120.86742331 164.23082046 -119.87996387 161.26844215 C-119.21996387 161.26844215 -118.55996387 161.26844215 -117.87996387 161.26844215 C-117.75250782 160.67998512 -117.62505177 160.09152809 -117.49373341 159.48523903 C-116.51626262 155.95483541 -114.57295556 152.92248095 -112.75496387 149.76844215 C-112.35043995 149.05792702 -111.94591602 148.34741188 -111.5291338 147.61536598 C-108.56028846 142.41301297 -105.53394851 137.24453978 -102.50496387 132.0770359 C-98.37407947 124.93735829 -94.51241116 117.67304624 -90.87996387 110.26844215 C-90.21996387 110.26844215 -89.55996387 110.26844215 -88.87996387 110.26844215 C-88.79746387 109.58781715 -88.71496387 108.90719215 -88.62996387 108.20594215 C-87.11778029 102.28322311 -83.22205529 97.16022453 -79.93074512 92.06531715 C-78.72361668 90.14260182 -78.72361668 90.14260182 -77.87996387 87.26844215 C-77.21996387 87.26844215 -76.55996387 87.26844215 -75.87996387 87.26844215 C-75.75750294 86.6960984 -75.635042 86.12375465 -75.50887012 85.53406715 C-74.85233519 83.16891025 -73.94272876 81.19637418 -72.81746387 79.01844215 C-72.45523731 78.3120359 -72.09301075 77.60562965 -71.71980762 76.87781715 C-71.44265919 76.3467234 -71.16551075 75.81562965 -70.87996387 75.26844215 C-70.21996387 75.26844215 -69.55996387 75.26844215 -68.87996387 75.26844215 C-68.72720997 74.46019997 -68.72720997 74.46019997 -68.57137012 73.63562965 C-67.69388566 70.63136082 -66.32072146 68.13971227 -64.81746387 65.39344215 C-64.1909795 64.24746559 -63.56449512 63.10148903 -62.91902637 61.9207859 C-60.54652996 57.64868155 -58.10967234 53.41383386 -55.66878223 49.18055153 C-53.23796943 44.94720123 -50.991892 40.66829241 -48.87996387 36.26844215 C-48.21996387 36.26844215 -47.55996387 36.26844215 -46.87996387 36.26844215 C-46.54996387 34.61844215 -46.21996387 32.96844215 -45.87996387 31.26844215 C-45.21996387 31.26844215 -44.55996387 31.26844215 -43.87996387 31.26844215 C-43.79746387 30.73219215 -43.71496387 30.19594215 -43.62996387 29.64344215 C-42.60415117 26.39503524 -40.91432493 23.98092357 -38.87996387 21.26844215 C-38.21996387 21.26844215 -37.55996387 21.26844215 -36.87996387 21.26844215 C-36.87996387 20.60844215 -36.87996387 19.94844215 -36.87996387 19.26844215 C-35.50496387 17.64344215 -35.50496387 17.64344215 -33.87996387 16.26844215 C-33.21996387 16.26844215 -32.55996387 16.26844215 -31.87996387 16.26844215 C-31.87996387 15.60844215 -31.87996387 14.94844215 -31.87996387 14.26844215 C-25.68926452 9.50160365 -18.98020094 5.50714678 -11.87996387 2.26844215 C-11.12338657 1.91046315 -10.36680926 1.55248414 -9.58730537 1.18365729 C-6.2697244 0.06215107 -3.50307927 0.01029931 0 0 Z M-15.42683887 37.75281715 C-20.10943197 43.18965343 -23.45397931 48.88172998 -26.48543262 55.36219215 C-28.22769132 58.99311783 -30.28575099 62.36361886 -32.39168262 65.79187965 C-33.90483336 68.30982601 -35.3059791 70.86630944 -36.69246387 73.45594215 C-38.46419049 76.75844057 -40.30466634 79.99734645 -42.25887012 83.1942234 C-42.67096729 83.86880592 -43.08306446 84.54338844 -43.50764942 85.23841286 C-44.32743094 86.57262372 -45.15295975 87.9033234 -45.9847002 89.23011208 C-48.32104998 92.96494427 -48.32104998 92.96494427 -48.87996387 97.26844215 C-49.53996387 97.26844215 -50.19996387 97.26844215 -50.87996387 97.26844215 C-51.53351856 98.62775856 -51.53351856 98.62775856 -52.20027637 100.0145359 C-55.25654943 106.29289281 -58.30679343 112.34055894 -62.42293262 118.01062965 C-63.68303781 119.96328595 -64.69967767 121.86236244 -65.71980762 123.9442234 C-68.01349893 128.6215547 -70.61749402 133.09092583 -73.25496387 137.58094215 C-76.77807321 143.61698157 -80.23450572 149.67190082 -83.53230762 155.8348484 C-85.48520741 159.36138917 -87.62239322 162.76930492 -89.77840137 166.17469215 C-91.11276904 168.31662935 -91.11276904 168.31662935 -90.87996387 171.26844215 C-91.53996387 171.26844215 -92.19996387 171.26844215 -92.87996387 171.26844215 C-93.315667 172.17465309 -93.75137012 173.08086403 -94.20027637 174.0145359 C-97.2820968 180.34629189 -100.42914694 186.37647425 -104.45808887 192.1707859 C-109.12948575 198.72052074 -109.12948575 198.72052074 -110.87996387 206.26844215 C-111.53996387 206.26844215 -112.19996387 206.26844215 -112.87996387 206.26844215 C-113.22027637 206.97227028 -113.56058887 207.6760984 -113.91121387 208.40125465 C-119.29896454 219.37736372 -125.31578403 229.94214692 -131.84871387 240.2801609 C-133.11017336 242.33899172 -133.11017336 242.33899172 -132.87996387 245.26844215 C-133.53996387 245.26844215 -134.19996387 245.26844215 -134.87996387 245.26844215 C-135.19707325 245.93746559 -135.51418262 246.60648903 -135.84090137 247.2957859 C-140.85814378 257.6213262 -146.50892613 267.71188554 -152.87996387 277.26844215 C-152.87996387 278.25844215 -152.87996387 279.24844215 -152.87996387 280.26844215 C-153.53996387 280.26844215 -154.19996387 280.26844215 -154.87996387 280.26844215 C-155.70174122 281.9564695 -155.70174122 281.9564695 -156.54012012 283.6785984 C-158.93724358 288.47179071 -161.60618444 293.08520596 -164.31746387 297.70594215 C-166.17892111 300.88926638 -168.03274301 304.07683683 -169.87996387 307.26844215 C-170.36223438 308.09231422 -170.84450489 308.91618629 -171.34138966 309.76502419 C-171.79884571 310.56150368 -172.25630177 311.35798317 -172.72762012 312.1785984 C-173.34842457 313.24993019 -173.34842457 313.24993019 -173.98177052 314.34290504 C-175.09133112 316.36744858 -175.09133112 316.36744858 -174.87996387 319.26844215 C-175.53996387 319.26844215 -176.19996387 319.26844215 -176.87996387 319.26844215 C-177.72110558 320.70138714 -178.55262075 322.13998621 -179.37996387 323.58094215 C-179.84402637 324.38144997 -180.30808887 325.18195778 -180.78621387 326.0067234 C-182.09764273 328.29985395 -182.09764273 328.29985395 -181.87996387 331.26844215 C-182.53996387 331.26844215 -183.19996387 331.26844215 -183.87996387 331.26844215 C-184.37496387 332.29969215 -184.86996387 333.33094215 -185.37996387 334.39344215 C-189.53288564 342.69928568 -194.30727091 350.71170347 -199.12996387 358.64344215 C-206.27882873 370.48072244 -211.50794558 381.77700448 -209.31746387 395.89344215 C-207.54982467 402.37048506 -203.97436998 408.34236254 -200.87996387 414.26844215 C-200.20986301 415.60005285 -199.54133433 416.93247384 -198.87996387 418.26844215 C-198.21996387 418.26844215 -197.55996387 418.26844215 -196.87996387 418.26844215 C-196.67887012 419.15596169 -196.67887012 419.15596169 -196.47371387 420.0614109 C-194.58914654 427.06654608 -190.06305401 433.32117212 -186.31966114 439.46326637 C-182.82814847 445.24217211 -179.77713461 451.16734142 -176.87996387 457.26844215 C-176.21996387 457.26844215 -175.55996387 457.26844215 -174.87996387 457.26844215 C-174.75774464 457.84642555 -174.6355254 458.42440895 -174.50960255 459.019907 C-173.85968403 461.34086455 -172.98294868 463.14619292 -171.80574512 465.24500465 C-171.38800831 465.9938694 -170.97027149 466.74273415 -170.53987598 467.51429176 C-170.09522999 468.29941139 -169.65058399 469.08453102 -169.19246387 469.89344215 C-168.7420171 470.69725319 -168.29157032 471.50106422 -167.82747364 472.32923317 C-164.96251115 477.42061621 -162.02658417 482.46069794 -158.93855762 487.4207859 C-157.87996387 489.26844215 -157.87996387 489.26844215 -156.87996387 492.26844215 C-156.21996387 492.26844215 -155.55996387 492.26844215 -154.87996387 492.26844215 C-154.71017017 493.10834694 -154.71017017 493.10834694 -154.5369463 493.9652195 C-153.78683471 496.59493066 -152.68380222 498.72241858 -151.36824512 501.12000465 C-150.85713184 502.05457497 -150.34601856 502.98914528 -149.819417 503.9520359 C-149.28252247 504.92269997 -148.74562794 505.89336403 -148.19246387 506.89344215 C-147.41612598 508.31463356 -147.41612598 508.31463356 -146.6241045 509.7645359 C-143.57023009 515.32464098 -140.40157369 520.79045523 -137.0681963 526.18787575 C-135.87996387 528.26844215 -135.87996387 528.26844215 -134.87996387 531.26844215 C-134.21996387 531.26844215 -133.55996387 531.26844215 -132.87996387 531.26844215 C-132.75750294 531.8407859 -132.635042 532.41312965 -132.50887012 533.00281715 C-131.85233519 535.36797406 -130.94272876 537.34051013 -129.81746387 539.51844215 C-129.45523731 540.2248484 -129.09301075 540.93125465 -128.71980762 541.65906715 C-128.44265919 542.1901609 -128.16551075 542.72125465 -127.87996387 543.26844215 C-127.21996387 543.26844215 -126.55996387 543.26844215 -125.87996387 543.26844215 C-125.75621387 544.32031715 -125.75621387 544.32031715 -125.62996387 545.39344215 C-124.89123982 548.22521769 -123.81672791 549.95789393 -122.13387012 552.3114109 C-119.30710071 556.72328467 -117.16555498 561.56012447 -114.87996387 566.26844215 C-114.21996387 566.26844215 -113.55996387 566.26844215 -112.87996387 566.26844215 C-112.75750294 566.8407859 -112.635042 567.41312965 -112.50887012 568.00281715 C-111.85233519 570.36797406 -110.94272876 572.34051013 -109.81746387 574.51844215 C-109.45523731 575.2248484 -109.09301075 575.93125465 -108.71980762 576.65906715 C-108.44265919 577.1901609 -108.16551075 577.72125465 -107.87996387 578.26844215 C-107.21996387 578.26844215 -106.55996387 578.26844215 -105.87996387 578.26844215 C-105.79746387 578.94133278 -105.71496387 579.6142234 -105.62996387 580.30750465 C-104.66297207 584.12510771 -102.84393142 587.26930978 -100.87996387 590.64344215 C-100.28635059 591.68214455 -100.28635059 591.68214455 -99.68074512 592.74183083 C-96.44532953 598.37382694 -93.11099258 603.94805888 -89.71199512 609.48279762 C-88.13589131 612.06672594 -86.84124907 614.38458656 -85.87996387 617.26844215 C-85.21996387 617.26844215 -84.55996387 617.26844215 -83.87996387 617.26844215 C-83.75621387 618.32031715 -83.75621387 618.32031715 -83.62996387 619.39344215 C-82.89123982 622.22521769 -81.81672791 623.95789393 -80.13387012 626.3114109 C-77.30710071 630.72328467 -75.16555498 635.56012447 -72.87996387 640.26844215 C-72.21996387 640.26844215 -71.55996387 640.26844215 -70.87996387 640.26844215 C-70.75750294 640.8407859 -70.635042 641.41312965 -70.50887012 642.00281715 C-69.85233519 644.36797406 -68.94272876 646.34051013 -67.81746387 648.51844215 C-67.45523731 649.2248484 -67.09301075 649.93125465 -66.71980762 650.65906715 C-66.44265919 651.1901609 -66.16551075 651.72125465 -65.87996387 652.26844215 C-65.21996387 652.26844215 -64.55996387 652.26844215 -63.87996387 652.26844215 C-63.7691045 652.82531715 -63.65824512 653.38219215 -63.54402637 653.95594215 C-62.7705569 656.64943587 -61.61808247 658.81920232 -60.25496387 661.26844215 C-59.71613575 662.23910622 -59.17730762 663.20977028 -58.62215137 664.2098484 C-56.90381826 667.22656327 -55.14706268 670.21758173 -53.37996387 673.20594215 C-49.91888654 679.0874611 -46.8522768 685.12783962 -43.87996387 691.26844215 C-43.21996387 691.26844215 -42.55996387 691.26844215 -41.87996387 691.26844215 C-41.76523731 692.0057859 -41.65051075 692.74312965 -41.53230762 693.50281715 C-40.86551706 696.32968974 -39.99040437 698.08032624 -38.44246387 700.51844215 C-35.42592207 705.38169614 -32.47730358 710.2783152 -29.56746387 715.20594215 C-29.12281788 715.95198708 -28.67817188 716.698032 -28.22005177 717.46668434 C-27.80231495 718.17341286 -27.38457813 718.88014137 -26.95418262 719.6082859 C-26.57866261 720.24113503 -26.20314259 720.87398415 -25.81624317 721.52601051 C-24.87996387 723.26844215 -24.87996387 723.26844215 -23.87996387 726.26844215 C-23.21996387 726.26844215 -22.55996387 726.26844215 -21.87996387 726.26844215 C-21.79746387 726.80469215 -21.71496387 727.34094215 -21.62996387 727.89344215 C-19.67976735 734.0690645 -14.85408783 739.24917235 -9.87996387 743.26844215 C-7.1285135 744.29493798 -7.1285135 744.29493798 -4.87996387 744.26844215 C-4.87996387 744.92844215 -4.87996387 745.58844215 -4.87996387 746.26844215 C1.17027859 749.01855236 7.25443434 749.39299557 13.83115578 749.39707661 C15.14991626 749.40030105 16.46867675 749.4035255 17.82739967 749.40684766 C19.27906614 749.40537672 20.73073252 749.40380902 22.1823988 749.40215492 C23.73366414 749.40402412 25.28492901 749.40632525 26.83619314 749.40902025 C31.09192994 749.41513106 35.34764706 749.4150055 39.60338724 749.41382587 C44.19582857 749.41362169 48.78826362 749.41914225 53.38070202 749.42388344 C62.3748124 749.4321862 71.36891623 749.43493809 80.36303013 749.43549582 C87.67305544 749.43597108 94.98307859 749.43802632 102.29310322 749.44119644 C123.01813265 749.45000135 143.7431569 749.45461598 164.46818822 749.45386597 C165.58523895 749.45382601 166.70228967 749.45378606 167.85319042 749.45374489 C168.97160458 749.45370401 170.09001874 749.45366313 171.24232424 749.45362101 C189.37509032 749.4532144 207.50783565 749.4627881 225.64059573 749.47688325 C244.25894176 749.49124173 262.87727766 749.49815376 281.49562937 749.49728948 C291.94859033 749.49695737 302.40152953 749.49971081 312.85448551 749.51046753 C321.75248634 749.51956548 330.65045553 749.52175352 339.54845899 749.51495811 C344.08814321 749.51168958 348.62776671 749.51164829 353.16744518 749.52031136 C357.3242884 749.52816232 361.48102259 749.5267593 365.63786311 749.51802722 C367.14047854 749.51648916 368.64310205 749.51831991 370.14570796 749.5238873 C384.50120739 749.57354807 394.7062236 747.49445395 405.65128613 737.85437965 C407.34652949 736.3841407 407.34652949 736.3841407 407.12003613 734.26844215 C407.78003613 734.26844215 408.44003613 734.26844215 409.12003613 734.26844215 C409.45003613 732.61844215 409.78003613 730.96844215 410.12003613 729.26844215 C410.78003613 729.26844215 411.44003613 729.26844215 412.12003613 729.26844215 C412.47195019 728.52980934 412.82386425 727.79117653 413.18644238 727.0301609 C416.30287292 720.62642503 419.67813116 714.58591993 423.60441113 708.64344215 C426.42218171 704.29006931 426.42218171 704.29006931 427.12003613 699.26844215 C427.78003613 699.26844215 428.44003613 699.26844215 429.12003613 699.26844215 C429.64210644 698.1907859 430.16417675 697.11312965 430.70206738 696.00281715 C434.04602058 689.31196322 437.86561454 682.87937918 441.60636425 676.4051609 C442.17161816 675.41644997 442.73687206 674.42773903 443.31925488 673.40906715 C443.83318798 672.51735817 444.34712109 671.62564919 444.87662792 670.70691872 C445.98924475 668.52494015 446.65700092 666.6605008 447.12003613 664.26844215 C447.78003613 664.26844215 448.44003613 664.26844215 449.12003613 664.26844215 C449.59570019 663.264907 449.59570019 663.264907 450.08097363 662.2410984 C454.25340239 653.65419391 459.02912214 645.50793685 463.90909863 637.30994606 C469.83612547 627.31764797 475.40838267 617.13792223 480.90861034 606.90638161 C485.00403594 599.3322135 485.00403594 599.3322135 487.47941113 595.79969215 C489.39198385 593.35160474 489.39198385 593.35160474 489.12003613 590.26844215 C489.78003613 590.26844215 490.44003613 590.26844215 491.12003613 590.26844215 C491.50675488 589.47180153 491.89347363 588.6751609 492.29191113 587.85437965 C497.06755849 578.13759219 497.06755849 578.13759219 499.49503613 574.70594215 C501.39738622 572.34066874 501.39738622 572.34066874 501.12003613 569.26844215 C501.78003613 569.26844215 502.44003613 569.26844215 503.12003613 569.26844215 C503.86253613 567.72156715 503.86253613 567.72156715 504.62003613 566.14344215 C508.30272607 558.76486266 512.4315146 551.48466942 516.86612988 544.5301609 C518.36247274 542.2621582 518.36247274 542.2621582 518.12003613 539.26844215 C518.78003613 539.26844215 519.44003613 539.26844215 520.12003613 539.26844215 C520.89347363 537.65969215 520.89347363 537.65969215 521.68253613 536.01844215 C524.09433261 531.15131494 526.90390509 526.54112773 529.72941113 521.9051609 C531.35328731 519.32300888 531.35328731 519.32300888 531.12003613 516.26844215 C531.78003613 516.26844215 532.44003613 516.26844215 533.12003613 516.26844215 C533.96117783 514.83549717 534.792693 513.3968981 535.62003613 511.95594215 C536.08409863 511.15543434 536.54816113 510.35492653 537.02628613 509.5301609 C538.33771498 507.23703036 538.33771498 507.23703036 538.12003613 504.26844215 C538.78003613 504.26844215 539.44003613 504.26844215 540.12003613 504.26844215 C540.89347363 502.65969215 540.89347363 502.65969215 541.68253613 501.01844215 C544.01993447 496.33538611 546.66862905 491.85678145 549.32706738 487.3504734 C551.00031568 484.47423612 552.60407084 481.57251029 554.18253613 478.64344215 C556.53885931 474.28080666 559.04583738 470.03639425 561.62003613 465.79969215 C563.18711292 463.15525007 564.66094352 460.47384302 566.12003613 457.76844215 C568.06004055 454.17208931 570.06665934 450.63923858 572.18253613 447.14344215 C574.14970204 443.88905422 576.10312765 440.62979102 577.99503613 437.33094215 C578.60991894 436.265532 578.60991894 436.265532 579.23722363 435.1785984 C580.32980062 433.16528691 580.32980062 433.16528691 580.12003613 430.26844215 C580.78003613 430.26844215 581.44003613 430.26844215 582.12003613 430.26844215 C582.49515331 429.49500465 582.8702705 428.72156715 583.25675488 427.92469215 C587.94982673 418.37304969 587.94982673 418.37304969 590.68253613 414.14344215 C597.14580978 404.05239555 601.51849513 394.35667554 599.12003613 382.26844215 C599.01948925 381.2939109 599.01948925 381.2939109 598.91691113 380.29969215 C597.93189217 373.35271635 594.09632057 367.91455655 590.45206738 362.08875465 C587.29039664 357.00376648 584.68768902 351.67561707 582.12003613 346.26844215 C581.46003613 346.26844215 580.80003613 346.26844215 580.12003613 346.26844215 C579.98597363 345.67676247 579.85191113 345.08508278 579.71378613 344.4754734 C577.82921879 337.47033823 573.30312626 331.21571218 569.55973339 325.07361794 C566.06822072 319.2947122 563.01720686 313.36954289 560.12003613 307.26844215 C559.46003613 307.26844215 558.80003613 307.26844215 558.12003613 307.26844215 C557.99781689 306.69045876 557.87559765 306.11247536 557.7496748 305.51697731 C557.09975628 303.19601976 556.22302093 301.39069139 555.04581738 299.29187965 C554.62808056 298.54301491 554.21034374 297.79415016 553.77994823 297.02259254 C553.33530224 296.23747292 552.89065624 295.45235329 552.43253613 294.64344215 C551.98208935 293.83963112 551.53164257 293.03582008 551.06754589 292.20765114 C548.2025834 287.1162681 545.26665642 282.07618636 542.17862988 277.1160984 C541.12003613 275.26844215 541.12003613 275.26844215 540.12003613 272.26844215 C539.46003613 272.26844215 538.80003613 272.26844215 538.12003613 272.26844215 C538.00917675 271.71156715 537.89831738 271.15469215 537.78409863 270.58094215 C537.01062915 267.88744844 535.85815472 265.71768198 534.49503613 263.26844215 C533.956208 262.29777809 533.41737988 261.32711403 532.86222363 260.3270359 C531.14389051 257.31032103 529.38713493 254.31930258 527.62003613 251.33094215 C524.15895879 245.44942321 521.09234905 239.40904469 518.12003613 233.26844215 C517.46003613 233.26844215 516.80003613 233.26844215 516.12003613 233.26844215 C515.99757519 232.6960984 515.87511425 232.12375465 515.74894238 231.53406715 C515.09240744 229.16891025 514.18280101 227.19637418 513.05753613 225.01844215 C512.69530956 224.3120359 512.333083 223.60562965 511.95987988 222.87781715 C511.68273144 222.3467234 511.405583 221.81562965 511.12003613 221.26844215 C510.46003613 221.26844215 509.80003613 221.26844215 509.12003613 221.26844215 C508.99628613 220.21656715 508.99628613 220.21656715 508.87003613 219.14344215 C508.13131207 216.31166662 507.05680016 214.57899038 505.37394238 212.2254734 C502.54717296 207.81359964 500.40562723 202.97675984 498.12003613 198.26844215 C497.46003613 198.26844215 496.80003613 198.26844215 496.12003613 198.26844215 C496.00917675 197.71156715 495.89831738 197.15469215 495.78409863 196.58094215 C495.01062915 193.88744844 493.85815472 191.71768198 492.49503613 189.26844215 C491.956208 188.29777809 491.41737988 187.32711403 490.86222363 186.3270359 C489.14389051 183.31032103 487.38713493 180.31930258 485.62003613 177.33094215 C482.15895879 171.44942321 479.09234905 165.40904469 476.12003613 159.26844215 C475.46003613 159.26844215 474.80003613 159.26844215 474.12003613 159.26844215 C473.99757519 158.6960984 473.87511425 158.12375465 473.74894238 157.53406715 C473.09240744 155.16891025 472.18280101 153.19637418 471.05753613 151.01844215 C470.69530956 150.3120359 470.333083 149.60562965 469.95987988 148.87781715 C469.68273144 148.3467234 469.405583 147.81562965 469.12003613 147.26844215 C468.46003613 147.26844215 467.80003613 147.26844215 467.12003613 147.26844215 C466.99628613 146.21656715 466.99628613 146.21656715 466.87003613 145.14344215 C466.13131207 142.31166662 465.05680016 140.57899038 463.37394238 138.2254734 C460.54717296 133.81359964 458.40562723 128.97675984 456.12003613 124.26844215 C455.46003613 124.26844215 454.80003613 124.26844215 454.12003613 124.26844215 C453.99757519 123.6960984 453.87511425 123.12375465 453.74894238 122.53406715 C453.09240744 120.16891025 452.18280101 118.19637418 451.05753613 116.01844215 C450.69530956 115.3120359 450.333083 114.60562965 449.95987988 113.87781715 C449.68273144 113.3467234 449.405583 112.81562965 449.12003613 112.26844215 C448.46003613 112.26844215 447.80003613 112.26844215 447.12003613 112.26844215 C446.95374706 111.43312965 446.95374706 111.43312965 446.78409863 110.58094215 C446.01062915 107.88744844 444.85815472 105.71768198 443.49503613 103.26844215 C442.68679394 101.81244606 442.68679394 101.81244606 441.86222363 100.3270359 C440.14389051 97.31032103 438.38713493 94.31930258 436.62003613 91.33094215 C433.15895879 85.44942321 430.09234905 79.40904469 427.12003613 73.26844215 C426.46003613 73.26844215 425.80003613 73.26844215 425.12003613 73.26844215 C424.99781689 72.69045876 424.87559765 72.11247536 424.7496748 71.51697731 C424.09975628 69.19601976 423.22302093 67.39069139 422.04581738 65.29187965 C421.62864452 64.54341774 421.21147167 63.79495583 420.78165722 63.02381325 C420.33644726 62.23829079 419.8912373 61.45276833 419.43253613 60.64344215 C418.97701366 59.83600563 418.5214912 59.02856911 418.05216503 58.19666481 C417.14867571 56.59941902 416.24281569 55.00351149 415.33439159 53.40906715 C414.34334652 51.66208621 413.37144075 49.90425924 412.40519238 48.14344215 C407.09773574 38.73410074 400.28928215 32.08889426 390.12003613 28.26844215 C381.45900674 25.97702392 372.76071818 25.98492284 363.86258984 26.01447487 C362.338883 26.01216669 360.81517728 26.00898778 359.29147387 26.00502038 C355.13035206 25.99671278 350.96932263 26.0007792 346.8082006 26.00699282 C342.31052113 26.0115329 337.81285713 26.00452585 333.31518078 25.99903297 C324.51444663 25.99015391 315.71374666 25.99205436 306.91301119 25.99785826 C299.75852118 26.00238059 292.60404071 26.00298517 285.44954967 26.00081062 C284.43010772 26.00050416 283.41066576 26.00019769 282.36033162 25.99988194 C280.28915854 25.99924247 278.21798546 25.99859404 276.14681238 25.99793676 C256.73926233 25.99223782 237.3317312 25.99878451 217.92418426 26.00953749 C201.28259026 26.0184726 184.64102416 26.01692044 167.99943066 26.00769997 C148.65988121 25.99698963 129.32034833 25.9927871 109.98079634 25.99892449 C107.91737175 25.99956157 105.85394717 26.00019031 103.79052258 26.00081062 C102.77535858 26.00111917 101.76019459 26.00142773 100.71426806 26.00174563 C93.57088945 26.00347027 86.42752138 26.00056242 79.2841444 25.99585152 C70.57516727 25.99023421 61.86622617 25.99177701 53.15725315 26.002413 C48.71640946 26.00765826 44.2756258 26.00974601 39.8347826 26.0031147 C35.7649072 25.99712939 31.69514714 26.00047274 27.62528211 26.0110698 C26.15772754 26.01329292 24.6901631 26.01219218 23.22261494 26.00731823 C8.43192852 25.96198709 -4.34002032 26.93806777 -15.42683887 37.75281715 Z " fill="#FF7247" transform="translate(305.8799638748169,112.73155784606934)"/>
</svg>
